<svg xmlns="http://www.w3.org/2000/svg" xmlns:xlink="http://www.w3.org/1999/xlink" viewBox="0 0 64.24 65.4"><defs><style>.cls-1{isolation:isolate;}.cls-2{fill:url(#radial-gradient);}.cls-3{fill:url(#radial-gradient-3);}.cls-4{fill:url(#radial-gradient-5);}.cls-5{fill:url(#linear-gradient);}.cls-6{fill:url(#radial-gradient-6);}.cls-7{fill:url(#radial-gradient-7);}.cls-21,.cls-46,.cls-8{opacity:0.3;}.cls-11,.cls-12,.cls-13,.cls-14,.cls-21,.cls-22,.cls-23,.cls-24,.cls-25,.cls-26,.cls-34,.cls-38,.cls-39,.cls-40,.cls-46,.cls-47,.cls-48,.cls-49,.cls-50,.cls-51,.cls-8,.cls-9{mix-blend-mode:screen;}.cls-8{fill:url(#linear-gradient-2);}.cls-22,.cls-47,.cls-9{opacity:0.4;}.cls-9{fill:url(#linear-gradient-3);}.cls-10{opacity:0.19;}.cls-11,.cls-12,.cls-13,.cls-14,.cls-23,.cls-24,.cls-25,.cls-26,.cls-40,.cls-48,.cls-49,.cls-50,.cls-51{opacity:0.6;}.cls-11{fill:url(#linear-gradient-4);}.cls-12{fill:url(#linear-gradient-5);}.cls-13{fill:url(#linear-gradient-6);}.cls-14{fill:url(#linear-gradient-7);}.cls-15{fill:url(#radial-gradient-8);}.cls-16{fill:url(#radial-gradient-10);}.cls-17{fill:url(#radial-gradient-12);}.cls-18{fill:url(#linear-gradient-8);}.cls-19{fill:url(#radial-gradient-13);}.cls-20{fill:url(#radial-gradient-14);}.cls-21{fill:url(#linear-gradient-9);}.cls-22{fill:url(#linear-gradient-10);}.cls-23{fill:url(#linear-gradient-11);}.cls-24{fill:url(#linear-gradient-12);}.cls-25{fill:url(#linear-gradient-13);}.cls-26{fill:url(#linear-gradient-14);}.cls-27,.cls-28,.cls-41,.cls-42{mix-blend-mode:multiply;}.cls-27{fill:url(#radial-gradient-15);}.cls-28{fill:url(#radial-gradient-16);}.cls-29{fill:url(#radial-gradient-17);}.cls-30{fill:url(#radial-gradient-19);}.cls-31{fill:url(#radial-gradient-21);}.cls-32{fill:url(#linear-gradient-15);}.cls-33{fill:url(#radial-gradient-22);}.cls-35{fill:url(#linear-gradient-16);}.cls-36{fill:url(#linear-gradient-17);}.cls-37{fill:url(#radial-gradient-23);}.cls-38{fill:url(#linear-gradient-18);}.cls-39{fill:url(#linear-gradient-19);}.cls-40{fill:url(#linear-gradient-20);}.cls-41{fill:url(#radial-gradient-24);}.cls-42{fill:url(#radial-gradient-25);}.cls-43{fill:url(#linear-gradient-21);}.cls-44{fill:url(#radial-gradient-26);}.cls-45{fill:url(#radial-gradient-27);}.cls-46{fill:url(#linear-gradient-22);}.cls-47{fill:url(#linear-gradient-23);}.cls-48{fill:url(#linear-gradient-24);}.cls-49{fill:url(#linear-gradient-25);}.cls-50{fill:url(#linear-gradient-26);}.cls-51{fill:url(#linear-gradient-27);}.cls-52{fill:url(#linear-gradient-28);}.cls-53{fill:url(#linear-gradient-29);}.cls-54{fill:url(#linear-gradient-30);}.cls-55{fill:url(#linear-gradient-31);}.cls-56{fill:url(#radial-gradient-28);}.cls-57{fill:url(#radial-gradient-29);}.cls-58{fill:url(#radial-gradient-30);}.cls-59{fill:url(#radial-gradient-31);}.cls-60{fill:url(#radial-gradient-32);}.cls-61{fill:url(#radial-gradient-33);}.cls-62{fill:url(#radial-gradient-34);}.cls-63{fill:url(#radial-gradient-35);}.cls-64{fill:url(#radial-gradient-36);}.cls-65{fill:url(#radial-gradient-37);}.cls-66{fill:url(#radial-gradient-38);}.cls-67{fill:url(#radial-gradient-39);}.cls-68{fill:url(#radial-gradient-40);}.cls-69{fill:url(#radial-gradient-41);}.cls-70{fill:url(#radial-gradient-42);}.cls-71{fill:url(#radial-gradient-43);}.cls-72{fill:url(#radial-gradient-44);}.cls-73{fill:url(#radial-gradient-45);}.cls-74{fill:url(#radial-gradient-46);}.cls-75{fill:url(#radial-gradient-47);}</style><radialGradient id="radial-gradient" cx="1833.13" cy="-1063.78" fx="1820.6776129815364" r="17.11" gradientTransform="matrix(-0.71, 0.71, 0.24, 0.24, 1589.57, -976.76)" gradientUnits="userSpaceOnUse"><stop offset="0" stop-color="#ffea00"/><stop offset="0.07" stop-color="#ffea00" stop-opacity="0.89"/><stop offset="0.27" stop-color="#ffea00" stop-opacity="0.63"/><stop offset="0.46" stop-color="#ffea00" stop-opacity="0.4"/><stop offset="0.63" stop-color="#ffea00" stop-opacity="0.23"/><stop offset="0.78" stop-color="#ffea00" stop-opacity="0.1"/><stop offset="0.91" stop-color="#ffea00" stop-opacity="0.03"/><stop offset="1" stop-color="#ffea00" stop-opacity="0"/></radialGradient><radialGradient id="radial-gradient-3" cx="1830.25" cy="-1063.82" fx="1820.4516556813685" r="13.46" gradientTransform="matrix(-0.71, 0.71, 0.24, 0.24, 1589.57, -976.76)" gradientUnits="userSpaceOnUse"><stop offset="0" stop-color="#ff6500"/><stop offset="0.07" stop-color="#ff6500" stop-opacity="0.89"/><stop offset="0.27" stop-color="#ff6500" stop-opacity="0.63"/><stop offset="0.46" stop-color="#ff6500" stop-opacity="0.4"/><stop offset="0.63" stop-color="#ff6500" stop-opacity="0.23"/><stop offset="0.78" stop-color="#ff6500" stop-opacity="0.1"/><stop offset="0.91" stop-color="#ff6500" stop-opacity="0.03"/><stop offset="1" stop-color="#ff6500" stop-opacity="0"/></radialGradient><radialGradient id="radial-gradient-5" cx="1825.96" cy="-1063.87" fx="1819.4983614245075" r="8.88" gradientTransform="matrix(-0.71, 0.71, 0.24, 0.24, 1589.57, -976.77)" gradientUnits="userSpaceOnUse"><stop offset="0" stop-color="#fff"/><stop offset="0.07" stop-color="#fff" stop-opacity="0.89"/><stop offset="0.27" stop-color="#fff" stop-opacity="0.63"/><stop offset="0.46" stop-color="#fff" stop-opacity="0.4"/><stop offset="0.63" stop-color="#fff" stop-opacity="0.23"/><stop offset="0.78" stop-color="#fff" stop-opacity="0.1"/><stop offset="0.91" stop-color="#fff" stop-opacity="0.03"/><stop offset="1" stop-color="#fff" stop-opacity="0"/></radialGradient><linearGradient id="linear-gradient" x1="-443.89" y1="333.1" x2="-437.33" y2="333.1" gradientTransform="matrix(-0.71, -0.71, -0.71, 0.71, -18.39, -492.49)" gradientUnits="userSpaceOnUse"><stop offset="0" stop-color="#3d3d3d"/><stop offset="0.04" stop-color="#424242"/><stop offset="0.09" stop-color="#4f4f4f"/><stop offset="0.14" stop-color="#666"/><stop offset="0.19" stop-color="#858585"/><stop offset="0.24" stop-color="#adadad"/><stop offset="0.26" stop-color="#bdbdbd"/><stop offset="0.3" stop-color="#b5b5b5"/><stop offset="0.35" stop-color="#a0a0a0"/><stop offset="0.39" stop-color="#8c8c8c"/><stop offset="0.66"/><stop offset="0.75" stop-color="#020202"/><stop offset="0.8" stop-color="#0a0a0a"/><stop offset="0.84" stop-color="#181818"/><stop offset="0.87" stop-color="#2b2b2b"/><stop offset="0.9" stop-color="#444"/><stop offset="0.93" stop-color="#626262"/><stop offset="0.95" stop-color="#868686"/><stop offset="0.96" stop-color="#8c8c8c"/></linearGradient><radialGradient id="radial-gradient-6" cx="-443.11" cy="333.45" r="18.21" gradientTransform="matrix(-0.71, 0.71, 0.26, 0.26, -341.81, 282.31)" gradientUnits="userSpaceOnUse"><stop offset="0" stop-color="#d1000e"/><stop offset="0.13" stop-color="#cc000e"/><stop offset="0.27" stop-color="#bf010e"/><stop offset="0.42" stop-color="#a8020d"/><stop offset="0.57" stop-color="#89040c"/><stop offset="0.73" stop-color="#61060b"/><stop offset="0.76" stop-color="#59060b"/><stop offset="0.84" stop-color="#88040c"/><stop offset="0.93" stop-color="#b6030c"/></radialGradient><radialGradient id="radial-gradient-7" cx="46.98" cy="40.44" r="13.87" gradientTransform="matrix(-0.71, 0.71, 0.36, 0.36, 86.59, 1.32)" gradientUnits="userSpaceOnUse"><stop offset="0" stop-color="#3d3d3d"/><stop offset="0.43"/><stop offset="0.52" stop-color="#151515"/><stop offset="0.7" stop-color="#4c4c4c"/><stop offset="0.89" stop-color="#8c8c8c"/></radialGradient><linearGradient id="linear-gradient-2" x1="52.67" y1="56.39" x2="52.67" y2="46.08" gradientTransform="matrix(-0.71, -0.71, -0.71, 0.71, 129.54, 53.53)" gradientUnits="userSpaceOnUse"><stop offset="0"/><stop offset="0.37" stop-color="#020202"/><stop offset="0.51" stop-color="#090909"/><stop offset="0.6" stop-color="#141414"/><stop offset="0.68" stop-color="#252525"/><stop offset="0.75" stop-color="#3b3b3b"/><stop offset="0.8" stop-color="#575757"/><stop offset="0.86" stop-color="#777"/><stop offset="0.91" stop-color="#9d9d9d"/><stop offset="0.95" stop-color="#c8c8c8"/><stop offset="0.99" stop-color="#f6f6f6"/><stop offset="1" stop-color="#fff"/></linearGradient><linearGradient id="linear-gradient-3" x1="47.75" y1="56.69" x2="47.75" y2="45.28" gradientTransform="matrix(-0.71, -0.71, -0.71, 0.71, 129.54, 53.53)" gradientUnits="userSpaceOnUse"><stop offset="0"/><stop offset="0.11" stop-color="#040404"/><stop offset="0.24" stop-color="#111"/><stop offset="0.37" stop-color="#272727"/><stop offset="0.5" stop-color="#464646"/><stop offset="0.63" stop-color="#6d6d6d"/><stop offset="0.77" stop-color="#9d9d9d"/><stop offset="0.91" stop-color="#d4d4d4"/><stop offset="1" stop-color="#fff"/></linearGradient><linearGradient id="linear-gradient-4" x1="51.06" y1="42.27" x2="51.06" y2="37.71" gradientTransform="matrix(-0.71, -0.71, -0.71, 0.71, 129.54, 53.53)" gradientUnits="userSpaceOnUse"><stop offset="0"/><stop offset="0.14" stop-color="#242424"/><stop offset="0.74" stop-color="silver"/><stop offset="1" stop-color="#fff"/></linearGradient><linearGradient id="linear-gradient-5" x1="52.15" y1="44.22" x2="52.15" y2="42.75" xlink:href="#linear-gradient-4"/><linearGradient id="linear-gradient-6" x1="48.22" y1="44.55" x2="48.22" y2="41.92" xlink:href="#linear-gradient-4"/><linearGradient id="linear-gradient-7" x1="49.24" y1="41.43" x2="49.24" y2="37.71" xlink:href="#linear-gradient-4"/><radialGradient id="radial-gradient-8" cx="1833.13" cy="-1107.72" fx="1820.6776088673598" r="17.11" gradientTransform="matrix(-0.71, 0.71, 0.24, 0.24, 1586.68, -979.66)" xlink:href="#radial-gradient"/><radialGradient id="radial-gradient-10" cx="1830.25" cy="-1107.76" fx="1820.451651182199" r="13.46" gradientTransform="matrix(-0.71, 0.71, 0.24, 0.24, 1586.68, -979.66)" xlink:href="#radial-gradient-3"/><radialGradient id="radial-gradient-12" cx="1825.96" cy="-1107.81" fx="1819.4983633064783" r="8.88" gradientTransform="matrix(-0.71, 0.71, 0.24, 0.24, 1586.67, -979.66)" xlink:href="#radial-gradient-5"/><linearGradient id="linear-gradient-8" x1="-425.18" y1="333.1" x2="-418.62" y2="333.1" xlink:href="#linear-gradient"/><radialGradient id="radial-gradient-13" cx="-424.4" cy="333.45" r="18.21" gradientTransform="matrix(-0.71, 0.71, 0.26, 0.26, -341.81, 255.84)" xlink:href="#radial-gradient-6"/><radialGradient id="radial-gradient-14" cx="-423.06" cy="322.97" r="13.05" gradientTransform="matrix(-0.71, 0.71, 0.27, 0.27, -334.03, 246.91)" xlink:href="#radial-gradient-7"/><linearGradient id="linear-gradient-9" x1="71.38" y1="56.39" x2="71.38" y2="46.08" xlink:href="#linear-gradient-2"/><linearGradient id="linear-gradient-10" x1="66.47" y1="56.69" x2="66.47" y2="45.28" xlink:href="#linear-gradient-3"/><linearGradient id="linear-gradient-11" x1="69.77" y1="42.27" x2="69.77" y2="37.71" xlink:href="#linear-gradient-4"/><linearGradient id="linear-gradient-12" x1="70.89" y1="44.22" x2="70.89" y2="42.75" xlink:href="#linear-gradient-4"/><linearGradient id="linear-gradient-13" x1="66.97" y1="44.55" x2="66.97" y2="41.92" xlink:href="#linear-gradient-4"/><linearGradient id="linear-gradient-14" x1="67.95" y1="41.43" x2="67.95" y2="37.71" xlink:href="#linear-gradient-4"/><radialGradient id="radial-gradient-15" cx="66.6" cy="50.16" r="8.38" gradientTransform="matrix(-1, 0, 0, 0.59, 115.76, 11.55)" gradientUnits="userSpaceOnUse"><stop offset="0"/><stop offset="0.85" stop-color="#d8d8d8"/><stop offset="1" stop-color="#fff"/></radialGradient><radialGradient id="radial-gradient-16" cx="51.19" cy="63.85" r="8.38" gradientTransform="matrix(-1, 0, 0, 0.59, 109.51, 12.67)" xlink:href="#radial-gradient-15"/><radialGradient id="radial-gradient-17" cx="1839.65" cy="-1082.19" fx="1825.1085800838002" r="19.98" gradientTransform="matrix(-0.71, 0.71, 0.24, 0.24, 1588.36, -977.98)" xlink:href="#radial-gradient"/><radialGradient id="radial-gradient-19" cx="1836.29" cy="-1082.24" fx="1824.8446865658993" r="15.72" gradientTransform="matrix(-0.71, 0.71, 0.24, 0.24, 1588.36, -977.98)" xlink:href="#radial-gradient-3"/><radialGradient id="radial-gradient-21" cx="1831.28" cy="-1082.3" fx="1823.7313872160578" r="10.37" gradientTransform="matrix(-0.71, 0.71, 0.24, 0.24, 1588.35, -977.98)" xlink:href="#radial-gradient-5"/><linearGradient id="linear-gradient-15" x1="-438.38" y1="319.52" x2="-424.14" y2="319.52" xlink:href="#linear-gradient"/><radialGradient id="radial-gradient-22" cx="-436.45" cy="320.27" r="39.52" gradientTransform="matrix(-0.68, 0.73, 0.28, 0.26, -323.05, 278.34)" gradientUnits="userSpaceOnUse"><stop offset="0" stop-color="#f2f2f2"/><stop offset="0.13" stop-color="#ededed"/><stop offset="0.13" stop-color="#ededed"/><stop offset="0.22" stop-color="#e7e7e7"/><stop offset="0.33" stop-color="#d6d6d6"/><stop offset="0.46" stop-color="#bababa"/><stop offset="0.6" stop-color="#939393"/><stop offset="0.75" stop-color="#626262"/><stop offset="0.77" stop-color="#595959"/><stop offset="0.8" stop-color="#5f5f5f"/><stop offset="0.83" stop-color="#717171"/><stop offset="0.87" stop-color="#8e8e8e"/><stop offset="0.91" stop-color="#b7b7b7"/><stop offset="0.95" stop-color="#e5e5e5"/><stop offset="0.96" stop-color="#dbdbdb"/><stop offset="0.97" stop-color="#bfbfbf"/><stop offset="0.99" stop-color="#939393"/><stop offset="1" stop-color="#7f7f7f"/></radialGradient><linearGradient id="linear-gradient-16" x1="59.53" y1="7.88" x2="59.53" y2="7.88" gradientTransform="matrix(-0.71, -0.71, -0.71, 0.71, 129.54, 53.53)" gradientUnits="userSpaceOnUse"><stop offset="0" stop-color="#f2f2f2"/><stop offset="0.11" stop-color="#ededed"/><stop offset="0.24" stop-color="#e0e0e0"/><stop offset="0.38" stop-color="#c9c9c9"/><stop offset="0.51" stop-color="#aaa"/><stop offset="0.66" stop-color="#818181"/><stop offset="0.8" stop-color="#4f4f4f"/><stop offset="0.95" stop-color="#151515"/><stop offset="1"/></linearGradient><linearGradient id="linear-gradient-17" x1="66.58" y1="31.53" x2="59.99" y2="31.53" gradientTransform="matrix(-0.71, -0.71, -0.69, 0.73, 133.99, 57.98)" gradientUnits="userSpaceOnUse"><stop offset="0" stop-color="#f2f2f2"/><stop offset="0.39" stop-color="#979797"/><stop offset="1"/></linearGradient><radialGradient id="radial-gradient-23" cx="57.03" cy="23.54" r="22.74" gradientTransform="matrix(-0.71, 0.71, 0.27, 0.27, 106.56, -16.81)" gradientUnits="userSpaceOnUse"><stop offset="0" stop-color="#d1000e"/><stop offset="0.13" stop-color="#cc000e"/><stop offset="0.27" stop-color="#bf010e"/><stop offset="0.42" stop-color="#a8020d"/><stop offset="0.57" stop-color="#89040c"/><stop offset="0.73" stop-color="#61060b"/><stop offset="0.76" stop-color="#59060b"/><stop offset="0.8" stop-color="#5e060b"/><stop offset="0.85" stop-color="#6c050b"/><stop offset="0.91" stop-color="#83050b"/><stop offset="0.97" stop-color="#a3040c"/><stop offset="1" stop-color="#b6030c"/></radialGradient><linearGradient id="linear-gradient-18" x1="83.75" y1="14.57" x2="78.57" y2="14.14" gradientTransform="matrix(-0.71, -0.71, -0.63, 0.78, 144.23, 68.22)" gradientUnits="userSpaceOnUse"><stop offset="0" stop-color="#f2f2f2"/><stop offset="0.13" stop-color="#c9c9c9"/><stop offset="0.37" stop-color="#828282"/><stop offset="0.58" stop-color="#4a4a4a"/><stop offset="0.77" stop-color="#222"/><stop offset="0.91" stop-color="#090909"/><stop offset="1"/></linearGradient><linearGradient id="linear-gradient-19" x1="63.95" y1="13.99" x2="60.46" y2="14.22" gradientTransform="matrix(-0.71, -0.71, -0.71, 0.71, 129.54, 53.53)" gradientUnits="userSpaceOnUse"><stop offset="0" stop-color="#ff0500"/><stop offset="0.16" stop-color="#c90400"/><stop offset="0.39" stop-color="#820300"/><stop offset="0.6" stop-color="#4a0100"/><stop offset="0.78" stop-color="#220100"/><stop offset="0.92" stop-color="#090000"/><stop offset="1"/></linearGradient><linearGradient id="linear-gradient-20" x1="65.07" y1="43.52" x2="65.07" y2="24.34" xlink:href="#linear-gradient-4"/><radialGradient id="radial-gradient-24" cx="57.86" cy="66.38" r="8.38" gradientTransform="matrix(-1, 0, 0, 0.52, 109.66, 10.87)" xlink:href="#radial-gradient-15"/><radialGradient id="radial-gradient-25" cx="56.28" cy="60.19" r="8.38" gradientTransform="matrix(-1, 0, 0, 0.52, 111.24, 17.27)" gradientUnits="userSpaceOnUse"><stop offset="0"/><stop offset="0.33" stop-color="#5d5d5d"/><stop offset="0.66" stop-color="#b3b3b3"/><stop offset="0.89" stop-color="#eaeaea"/><stop offset="1" stop-color="#fff"/></radialGradient><linearGradient id="linear-gradient-21" x1="-436.59" y1="336.17" x2="-428.93" y2="336.17" xlink:href="#linear-gradient"/><radialGradient id="radial-gradient-26" cx="-435.67" cy="336.57" r="21.27" gradientTransform="matrix(-0.71, 0.71, 0.26, 0.26, -344.84, 273.18)" xlink:href="#radial-gradient-6"/><radialGradient id="radial-gradient-27" cx="-435.48" cy="326.22" r="16.47" gradientTransform="matrix(-0.71, 0.71, 0.31, 0.31, -351.53, 251.59)" xlink:href="#radial-gradient-7"/><linearGradient id="linear-gradient-22" x1="60.96" y1="60.26" x2="60.96" y2="48.22" xlink:href="#linear-gradient-2"/><linearGradient id="linear-gradient-23" x1="55.22" y1="60.61" x2="55.22" y2="47.28" xlink:href="#linear-gradient-3"/><linearGradient id="linear-gradient-24" x1="59.08" y1="43.77" x2="59.08" y2="38.45" xlink:href="#linear-gradient-4"/><linearGradient id="linear-gradient-25" x1="60.38" y1="46.04" x2="60.38" y2="44.34" xlink:href="#linear-gradient-4"/><linearGradient id="linear-gradient-26" x1="55.76" y1="46.43" x2="55.76" y2="43.36" xlink:href="#linear-gradient-4"/><linearGradient id="linear-gradient-27" x1="56.96" y1="42.78" x2="56.96" y2="38.45" xlink:href="#linear-gradient-4"/><linearGradient id="linear-gradient-28" x1="63.4" y1="37.48" x2="63.4" y2="25.11" gradientTransform="matrix(0, -1, -1, 0, 93.75, 93.92)" gradientUnits="userSpaceOnUse"><stop offset="0" stop-color="#fff"/><stop offset="1" stop-color="#4d4b4b"/></linearGradient><linearGradient id="linear-gradient-29" x1="-430.93" y1="307.11" x2="-423.71" y2="317.35" gradientTransform="matrix(0, -1, -1, 0, 375.19, -396.75)" xlink:href="#linear-gradient-28"/><linearGradient id="linear-gradient-30" x1="645.29" y1="-263.83" x2="652.38" y2="-263.83" gradientTransform="matrix(0, -1, -1, 0, -201.08, 679.22)" xlink:href="#linear-gradient-28"/><linearGradient id="linear-gradient-31" x1="651.71" y1="-260.14" x2="646.89" y2="-267.5" gradientTransform="matrix(0, -1, -1, 0, -201.41, 679.35)" xlink:href="#linear-gradient-28"/><radialGradient id="radial-gradient-28" cx="85.86" cy="-264.57" r="4.57" gradientTransform="matrix(0, -0.56, -1, 0, -201.41, 78.99)" gradientUnits="userSpaceOnUse"><stop offset="0" stop-color="#42a7ff"/><stop offset="0.16" stop-color="#41a3fa"/><stop offset="0.35" stop-color="#3d96ed"/><stop offset="0.54" stop-color="#3880d6"/><stop offset="0.74" stop-color="#2f62b7"/><stop offset="0.94" stop-color="#253c8f"/><stop offset="1" stop-color="#223082"/></radialGradient><radialGradient id="radial-gradient-29" cx="87.26" cy="-263.83" r="4.06" gradientTransform="matrix(-0.4, -0.4, -0.71, 0.71, -89.53, 251.22)" gradientUnits="userSpaceOnUse"><stop offset="0" stop-color="#fff" stop-opacity="0.53"/><stop offset="0.22" stop-color="#fff" stop-opacity="0.39"/><stop offset="0.58" stop-color="#fff" stop-opacity="0.18"/><stop offset="0.85" stop-color="#fff" stop-opacity="0.05"/><stop offset="1" stop-color="#fff" stop-opacity="0"/></radialGradient><radialGradient id="radial-gradient-30" cx="86.77" cy="-264.34" r="4.06" xlink:href="#radial-gradient-29"/><radialGradient id="radial-gradient-31" cx="86.7" cy="-269.15" r="0.81" gradientTransform="matrix(0, -0.56, -1, 0, -202.72, 74.9)" gradientUnits="userSpaceOnUse"><stop offset="0" stop-color="#fff"/><stop offset="1" stop-color="#6c6a6a"/></radialGradient><radialGradient id="radial-gradient-32" cx="86.44" cy="-269.43" r="0.34" xlink:href="#radial-gradient-31"/><radialGradient id="radial-gradient-33" cx="612.93" cy="-944.05" r="0.47" gradientTransform="matrix(-0.78, 0.22, -0.22, 0.78, 334.9, 628.11)" xlink:href="#radial-gradient-31"/><radialGradient id="radial-gradient-34" cx="612.79" cy="-944.21" r="0.2" gradientTransform="matrix(-0.78, 0.22, -0.22, 0.78, 334.9, 628.11)" xlink:href="#radial-gradient-31"/><radialGradient id="radial-gradient-35" cx="508.86" cy="-1793.22" r="0.47" gradientTransform="matrix(-0.71, 0.71, 0.4, 0.4, 1131.23, 379.27)" xlink:href="#radial-gradient-31"/><radialGradient id="radial-gradient-36" cx="508.71" cy="-1793.38" r="0.2" gradientTransform="matrix(-0.71, 0.71, 0.4, 0.4, 1131.23, 379.27)" xlink:href="#radial-gradient-31"/><radialGradient id="radial-gradient-37" cx="-165.4" cy="-2321.06" r="0.57" gradientTransform="matrix(-0.22, 0.78, 0.78, -0.22, 1833.31, -348.82)" xlink:href="#radial-gradient-31"/><radialGradient id="radial-gradient-38" cx="-165.58" cy="-2321.25" r="0.24" gradientTransform="matrix(-0.22, 0.78, 0.78, -0.22, 1833.31, -348.82)" xlink:href="#radial-gradient-31"/><radialGradient id="radial-gradient-39" cx="-1014.33" cy="-2216.69" r="0.81" gradientTransform="matrix(0, 0.56, 1, 0, 2275.73, 603.26)" xlink:href="#radial-gradient-31"/><radialGradient id="radial-gradient-40" cx="-1014.58" cy="-2216.96" r="0.34" gradientTransform="matrix(0, 0.56, 1, 0, 2275.73, 603.26)" xlink:href="#radial-gradient-31"/><radialGradient id="radial-gradient-41" cx="-1542.52" cy="-1542.31" r="0.81" gradientTransform="matrix(0.78, -0.22, 0.22, -0.78, 1604.25, -1507.88)" xlink:href="#radial-gradient-31"/><radialGradient id="radial-gradient-42" cx="-1542.78" cy="-1542.59" r="0.34" gradientTransform="matrix(0.78, -0.22, 0.22, -0.78, 1604.25, -1507.88)" xlink:href="#radial-gradient-31"/><radialGradient id="radial-gradient-43" cx="-1438.44" cy="-691.64" r="0.81" gradientTransform="matrix(0.71, -0.71, -0.4, -0.4, 807.92, -1259.04)" xlink:href="#radial-gradient-31"/><radialGradient id="radial-gradient-44" cx="-1438.69" cy="-691.91" r="0.34" gradientTransform="matrix(0.71, -0.71, -0.4, -0.4, 807.92, -1259.04)" xlink:href="#radial-gradient-31"/><radialGradient id="radial-gradient-45" cx="-764.02" cy="-165.16" r="0.81" gradientTransform="matrix(0.22, -0.78, -0.78, 0.22, 105.84, -530.95)" xlink:href="#radial-gradient-31"/><radialGradient id="radial-gradient-46" cx="-764.28" cy="-165.44" r="0.34" gradientTransform="matrix(0.22, -0.78, -0.78, 0.22, 105.84, -530.95)" xlink:href="#radial-gradient-31"/><radialGradient id="radial-gradient-47" cx="87.15" cy="-266.9" r="3.85" gradientTransform="matrix(0, -0.56, -1, 0, -202, 79.24)" xlink:href="#radial-gradient-29"/></defs><title>detail-rocket</title><g class="cls-1"><g id="Layer_1" data-name="Layer 1"><path class="cls-2" d="M30.93,81.31s15.2-7.45,20.22-12.48,5.39-8.86,3.25-11-6-1.77-11,3.26S30.93,81.31,30.93,81.31Z" transform="translate(-17.7 -17)"/><path class="cls-2" d="M30.93,81.31s15.2-7.45,20.22-12.48,5.39-8.86,3.25-11-6-1.77-11,3.26S30.93,81.31,30.93,81.31Z" transform="translate(-17.7 -17)"/><path class="cls-3" d="M35.56,76.68s11.95-5.86,15.91-9.81,4.24-7,2.56-8.66-4.71-1.39-8.66,2.56S35.56,76.68,35.56,76.68Z" transform="translate(-17.7 -17)"/><path class="cls-3" d="M35.56,76.68s11.95-5.86,15.91-9.81,4.24-7,2.56-8.66-4.71-1.39-8.66,2.56S35.56,76.68,35.56,76.68Z" transform="translate(-17.7 -17)"/><path class="cls-4" d="M41.84,70.4s7.89-3.87,10.5-6.48,2.8-4.6,1.69-5.71-3.11-.92-5.71,1.69S41.84,70.4,41.84,70.4Z" transform="translate(-17.7 -17)"/><path class="cls-5" d="M50.35,58a52.66,52.66,0,0,1,4.49-5.2,15.63,15.63,0,0,1,8.9-4.26,15.73,15.73,0,0,1-4.26,8.9,55.27,55.27,0,0,1-5.2,4.49C52.44,62.15,50.05,59.77,50.35,58Z" transform="translate(-17.7 -17)"/><path class="cls-6" d="M50.8,56.55a67.27,67.27,0,0,1,5.59-6.47,19.52,19.52,0,0,1,11.07-5.3,19.52,19.52,0,0,1-5.3,11.07,67.06,67.06,0,0,1-6.47,5.58C53.4,61.76,50.43,58.8,50.8,56.55Z" transform="translate(-17.7 -17)"/><path class="cls-7" d="M61.17,46.69a19.27,19.27,0,0,1,6.29-1.91,19.27,19.27,0,0,1-1.91,6.29Z" transform="translate(-17.7 -17)"/><path class="cls-8" d="M52.74,56.47l-.4-.39c1.6-1.9,3.38-3.85,4.79-5.26a23,23,0,0,1,2.43-2.11l.41.41a28.67,28.67,0,0,0-2.4,2.14C56.16,52.67,54.36,54.61,52.74,56.47Z" transform="translate(-17.7 -17)"/><path class="cls-9" d="M55.57,59.74a.55.55,0,0,1,0-.8c1.78-1.59,3.6-3.33,5-4.69.86-.85,1.62-1.7,2.31-2.52a.54.54,0,0,1,.8,0h0a.54.54,0,0,1,.06.71,24.25,24.25,0,0,1-2.31,2.7c-1.38,1.37-3.26,3.1-5.11,4.66a.55.55,0,0,1-.74,0Z" transform="translate(-17.7 -17)"/><g class="cls-10"><path class="cls-11" d="M62.85,46.62a20.68,20.68,0,0,1,4.61-1.84,23.77,23.77,0,0,0-4.33,2.13Z" transform="translate(-17.7 -17)"/><path class="cls-12" d="M62.41,46.86l.3.31c-.4.25-.81.52-1.24.82l-.36-.36C61.55,47.35,62,47.09,62.41,46.86Z" transform="translate(-17.7 -17)"/><path class="cls-13" d="M65.66,49.31c-.35.66-.76,1.37-1.24,2.1l-.71-.72c.48-.62.91-1.21,1.3-1.77a.37.37,0,0,1,.58-.05h0A.36.36,0,0,1,65.66,49.31Z" transform="translate(-17.7 -17)"/><path class="cls-14" d="M66,48.59l-.47-.47a27.62,27.62,0,0,0,1.91-3.34A20.14,20.14,0,0,1,66,48.59Z" transform="translate(-17.7 -17)"/></g><path class="cls-15" d="M17.7,68.07S32.89,60.63,37.92,55.6s5.39-8.86,3.25-11-6-1.77-11,3.25S17.7,68.07,17.7,68.07Z" transform="translate(-17.7 -17)"/><path class="cls-15" d="M17.7,68.07S32.89,60.63,37.92,55.6s5.39-8.86,3.25-11-6-1.77-11,3.25S17.7,68.07,17.7,68.07Z" transform="translate(-17.7 -17)"/><path class="cls-16" d="M22.33,63.45s12-5.86,15.91-9.82,4.24-7,2.55-8.65-4.7-1.4-8.65,2.56S22.33,63.45,22.33,63.45Z" transform="translate(-17.7 -17)"/><path class="cls-16" d="M22.33,63.45s12-5.86,15.91-9.82,4.24-7,2.55-8.65-4.7-1.4-8.65,2.56S22.33,63.45,22.33,63.45Z" transform="translate(-17.7 -17)"/><path class="cls-17" d="M28.61,57.16s7.89-3.86,10.5-6.47,2.79-4.6,1.68-5.71-3.1-.92-5.71,1.69S28.61,57.16,28.61,57.16Z" transform="translate(-17.7 -17)"/><path class="cls-18" d="M37.11,44.73a54.24,54.24,0,0,1,4.5-5.21,15.65,15.65,0,0,1,8.9-4.25,15.69,15.69,0,0,1-4.26,8.89,55.3,55.3,0,0,1-5.2,4.5C39.2,48.92,36.82,46.54,37.11,44.73Z" transform="translate(-17.7 -17)"/><path class="cls-19" d="M37.57,43.31a65.72,65.72,0,0,1,5.59-6.46,19.51,19.51,0,0,1,11.06-5.3,19.43,19.43,0,0,1-5.29,11.06,67.09,67.09,0,0,1-6.47,5.59C40.17,48.53,37.2,45.57,37.57,43.31Z" transform="translate(-17.7 -17)"/><path class="cls-20" d="M47.94,33.45a19.37,19.37,0,0,1,6.28-1.9,19.39,19.39,0,0,1-1.9,6.29Z" transform="translate(-17.7 -17)"/><path class="cls-21" d="M39.5,43.24l-.39-.4C40.7,41,42.49,39,43.9,37.59a24.56,24.56,0,0,1,2.22-2,.3.3,0,0,1,.39,0h0a.29.29,0,0,1,0,.43c-.71.58-1.43,1.23-2.15,1.94C42.93,39.44,41.13,41.37,39.5,43.24Z" transform="translate(-17.7 -17)"/><path class="cls-22" d="M42.34,46.5a.55.55,0,0,1,0-.79c1.78-1.6,3.61-3.33,5-4.69.85-.85,1.62-1.7,2.31-2.52a.54.54,0,0,1,.8,0h0a.56.56,0,0,1,.06.72,23.31,23.31,0,0,1-2.31,2.69c-1.38,1.38-3.26,3.1-5.11,4.67a.54.54,0,0,1-.74,0Z" transform="translate(-17.7 -17)"/><g class="cls-10"><path class="cls-23" d="M49.62,33.39a20.72,20.72,0,0,1,4.6-1.84,23.82,23.82,0,0,0-4.32,2.12Z" transform="translate(-17.7 -17)"/><path class="cls-24" d="M49.29,33.74h0a.22.22,0,0,1,0,.34l-1,.68-.36-.36c.39-.25.78-.48,1.15-.69A.23.23,0,0,1,49.29,33.74Z" transform="translate(-17.7 -17)"/><path class="cls-25" d="M52.55,35.83a22.93,22.93,0,0,1-1.36,2.35l-.72-.72c.6-.76,1.12-1.49,1.56-2.15Z" transform="translate(-17.7 -17)"/><path class="cls-26" d="M52.79,35.36l-.48-.47a26,26,0,0,0,1.91-3.34A19.87,19.87,0,0,1,52.79,35.36Z" transform="translate(-17.7 -17)"/></g><ellipse class="cls-27" cx="49.29" cy="40.97" rx="10.96" ry="4.47" transform="translate(-31.22 36.74) rotate(-51.23)"/><ellipse class="cls-28" cx="58.45" cy="50.13" rx="10.96" ry="4.47" transform="translate(-36.09 28.18) rotate(-36.94)"/><path class="cls-29" d="M18.73,82.4s17.74-8.7,23.61-14.56,6.3-10.35,3.8-12.85-7-2.07-12.85,3.8S18.73,82.4,18.73,82.4Z" transform="translate(-17.7 -17)"/><path class="cls-29" d="M18.73,82.4s17.74-8.7,23.61-14.56,6.3-10.35,3.8-12.85-7-2.07-12.85,3.8S18.73,82.4,18.73,82.4Z" transform="translate(-17.7 -17)"/><path class="cls-30" d="M24.13,77s14-6.84,18.58-11.46,4.95-8.14,3-10.11-5.49-1.63-10.11,3S24.13,77,24.13,77Z" transform="translate(-17.7 -17)"/><path class="cls-30" d="M24.13,77s14-6.84,18.58-11.46,4.95-8.14,3-10.11-5.49-1.63-10.11,3S24.13,77,24.13,77Z" transform="translate(-17.7 -17)"/><path class="cls-31" d="M31.47,69.66s9.21-4.51,12.26-7.56,3.26-5.37,2-6.67-3.63-1.08-6.67,2S31.47,69.66,31.47,69.66Z" transform="translate(-17.7 -17)"/><path class="cls-32" d="M44.81,45.66a119.5,119.5,0,0,1,9.75-11.29,34,34,0,0,1,19.31-9.24,34,34,0,0,1-9.24,19.31,116.67,116.67,0,0,1-11.29,9.75C49.35,54.76,44.16,49.6,44.81,45.66Z" transform="translate(-17.7 -17)"/><path class="cls-33" d="M45.8,42.6a146.3,146.3,0,0,1,12.13-14,42.3,42.3,0,0,1,24-11.49,42.3,42.3,0,0,1-11.49,24,144.88,144.88,0,0,1-14,12.12C51.44,53.91,45,47.49,45.8,42.6Z" transform="translate(-17.7 -17)"/><g class="cls-34"><path class="cls-35" d="M81.87,17Z" transform="translate(-17.7 -17)"/><path class="cls-36" d="M51.07,48.13A95.25,95.25,0,0,0,65.19,36.27a229.5,229.5,0,0,0,16.75-19.2A54.51,54.51,0,0,1,68.41,39.64,74.91,74.91,0,0,1,53.13,51.52C49.1,53,48,50.88,51.07,48.13Z" transform="translate(-17.7 -17)"/></g><path class="cls-37" d="M68.29,21.2a42,42,0,0,1,13.65-4.13,41.93,41.93,0,0,1-4.13,13.64Z" transform="translate(-17.7 -17)"/><path class="cls-38" d="M81.94,17.07A57.15,57.15,0,0,1,77.08,30l-2.51-2.51c4.19-5.68,6.86-9.77,7.32-10.41Z" transform="translate(-17.7 -17)"/><path class="cls-39" d="M81.92,17.05a48.7,48.7,0,0,0-11.61,6.16l2.51,2.51c5-4.92,8.54-8.08,9.09-8.62Z" transform="translate(-17.7 -17)"/><path class="cls-40" d="M49.54,42h0a.6.6,0,0,1,0-.82c3.37-4,7.07-8,10-11a51.57,51.57,0,0,1,4.85-4.25.6.6,0,0,1,.8,0l0,0a.6.6,0,0,1,0,.9c-1.55,1.27-3.12,2.67-4.68,4.23-2.94,2.94-6.65,6.92-10.07,10.81A.59.59,0,0,1,49.54,42Z" transform="translate(-17.7 -17)"/><ellipse class="cls-41" cx="51.93" cy="45.66" rx="10.96" ry="4.47" transform="translate(-34.71 23.37) rotate(-36.94)"/><ellipse class="cls-42" cx="55.09" cy="48.82" rx="10.96" ry="4.47" transform="translate(-35.17 44.19) rotate(-51.23)"/><path class="cls-43" d="M41.4,55.14a62.62,62.62,0,0,1,5.25-6.08,18.28,18.28,0,0,1,10.39-5,18.28,18.28,0,0,1-5,10.39A63.83,63.83,0,0,1,46,59.73C43.84,60,41.05,57.26,41.4,55.14Z" transform="translate(-17.7 -17)"/><path class="cls-44" d="M41.93,53.49a79.19,79.19,0,0,1,6.53-7.56,22.75,22.75,0,0,1,12.92-6.18A22.75,22.75,0,0,1,55.2,52.67a79,79,0,0,1-7.56,6.52C45,59.58,41.5,56.12,41.93,53.49Z" transform="translate(-17.7 -17)"/><path class="cls-45" d="M54,42a22.57,22.57,0,0,1,7.34-2.22,22.64,22.64,0,0,1-2.22,7.34Z" transform="translate(-17.7 -17)"/><path class="cls-46" d="M44.19,53.4l-.46-.46c1.86-2.22,3.94-4.49,5.59-6.14a28.25,28.25,0,0,1,2.6-2.29.34.34,0,0,1,.45,0h0a.33.33,0,0,1,0,.5c-.82.68-1.67,1.43-2.5,2.26C48.19,49,46.09,51.22,44.19,53.4Z" transform="translate(-17.7 -17)"/><path class="cls-47" d="M47.43,57.14a.54.54,0,0,1,0-.79c2.1-1.88,4.27-3.94,5.87-5.54q1.53-1.55,2.76-3a.54.54,0,0,1,.8,0l.13.13a.55.55,0,0,1,0,.71,26.3,26.3,0,0,1-2.74,3.21c-1.62,1.63-3.85,3.66-6,5.5a.54.54,0,0,1-.74,0Z" transform="translate(-17.7 -17)"/><g class="cls-10"><path class="cls-48" d="M56,41.89a24,24,0,0,1,5.38-2.14,27.88,27.88,0,0,0-5.05,2.48Z" transform="translate(-17.7 -17)"/><path class="cls-49" d="M55.62,42.31h0a.25.25,0,0,1,0,.39c-.39.25-.78.51-1.19.8L54,43.08q.69-.45,1.35-.81A.24.24,0,0,1,55.62,42.31Z" transform="translate(-17.7 -17)"/><path class="cls-50" d="M59.28,45a26.35,26.35,0,0,1-1.44,2.46L57,46.65c.57-.72,1.07-1.42,1.53-2.07a.43.43,0,0,1,.67-.06h0A.42.42,0,0,1,59.28,45Z" transform="translate(-17.7 -17)"/><path class="cls-51" d="M59.7,44.2l-.55-.55a32.46,32.46,0,0,0,2.23-3.9A22.8,22.8,0,0,1,59.7,44.2Z" transform="translate(-17.7 -17)"/></g><ellipse class="cls-52" cx="62.88" cy="30.52" rx="7.02" ry="3.94" transform="translate(-20.86 36.4) rotate(-45)"/><ellipse class="cls-53" cx="62.84" cy="30.48" rx="6.55" ry="3.68" transform="translate(-20.85 36.36) rotate(-45)"/><ellipse class="cls-54" cx="62.75" cy="30.39" rx="6.32" ry="3.54" transform="translate(-20.81 36.27) rotate(-45)"/><ellipse class="cls-55" cx="62.42" cy="30.06" rx="4.91" ry="2.75" transform="translate(-20.67 35.95) rotate(-45)"/><ellipse class="cls-56" cx="62.42" cy="30.06" rx="4.57" ry="2.56" transform="translate(-20.67 35.95) rotate(-45)"/><path class="cls-57" d="M65.62,29.05A5.88,5.88,0,0,1,64,31.68a7.32,7.32,0,0,1-.87.73,6.32,6.32,0,0,0,1.45-3.2A2.7,2.7,0,0,1,65.62,29.05Z" transform="translate(-17.7 -17)"/><path class="cls-58" d="M64.64,28.7a2.18,2.18,0,0,0-.24-.9,6.64,6.64,0,0,0,.94-.56,1.65,1.65,0,0,1,.37,1.21A5,5,0,0,0,64.64,28.7Z" transform="translate(-17.7 -17)"/><ellipse class="cls-59" cx="66.7" cy="26.43" rx="0.39" ry="0.22" transform="translate(-16.85 37.91) rotate(-45)"/><ellipse class="cls-60" cx="66.7" cy="26.43" rx="0.34" ry="0.19" transform="translate(-16.85 37.91) rotate(-45)"/><path class="cls-61" d="M63.85,25.86c0,.1,0,.15.13.13a.37.37,0,0,0,.23-.23c0-.1,0-.16-.13-.13A.37.37,0,0,0,63.85,25.86Z" transform="translate(-17.7 -17)"/><path class="cls-62" d="M63.88,25.85c0,.09,0,.14.11.11a.3.3,0,0,0,.19-.19c0-.09,0-.14-.11-.11A.3.3,0,0,0,63.88,25.85Z" transform="translate(-17.7 -17)"/><path class="cls-63" d="M60.28,28.06c0,.05.17,0,.26-.07s.12-.2.07-.25-.17,0-.25.07S60.23,28,60.28,28.06Z" transform="translate(-17.7 -17)"/><path class="cls-64" d="M60.31,28s.14,0,.21-.06.11-.18.07-.22-.14,0-.22.06S60.26,28,60.31,28Z" transform="translate(-17.7 -17)"/><path class="cls-65" d="M58.11,31.92a.41.41,0,0,0,.27-.27c0-.12,0-.19-.15-.16a.48.48,0,0,0-.28.28C57.92,31.89,58,32,58.11,31.92Z" transform="translate(-17.7 -17)"/><path class="cls-66" d="M58.12,31.89a.35.35,0,0,0,.23-.23c0-.11,0-.17-.13-.14a.41.41,0,0,0-.24.24C58,31.86,58,31.92,58.12,31.89Z" transform="translate(-17.7 -17)"/><ellipse class="cls-67" cx="58.79" cy="34.34" rx="0.39" ry="0.22" transform="translate(-24.76 34.63) rotate(-45)"/><ellipse class="cls-68" cx="58.79" cy="34.34" rx="0.34" ry="0.19" transform="translate(-24.76 34.63) rotate(-45)"/><path class="cls-69" d="M61.82,34.67c0-.17,0-.27-.22-.22a.61.61,0,0,0-.39.39c-.05.17,0,.27.22.22A.61.61,0,0,0,61.82,34.67Z" transform="translate(-17.7 -17)"/><path class="cls-70" d="M61.78,34.68c0-.15,0-.23-.19-.19a.55.55,0,0,0-.34.34c0,.14,0,.23.19.19A.55.55,0,0,0,61.78,34.68Z" transform="translate(-17.7 -17)"/><path class="cls-71" d="M65.24,32.33c-.08-.09-.28,0-.43.12s-.21.35-.12.43.28,0,.43-.12S65.33,32.41,65.24,32.33Z" transform="translate(-17.7 -17)"/><path class="cls-72" d="M65.2,32.37c-.07-.08-.24,0-.37.1s-.18.3-.1.37.24,0,.37-.1S65.28,32.44,65.2,32.37Z" transform="translate(-17.7 -17)"/><path class="cls-73" d="M67.2,28.85a.63.63,0,0,0-.39.39c0,.17,0,.27.22.22a.61.61,0,0,0,.39-.39C67.47,28.9,67.37,28.8,67.2,28.85Z" transform="translate(-17.7 -17)"/><path class="cls-74" d="M67.19,28.89a.55.55,0,0,0-.34.34c0,.15,0,.23.19.19a.55.55,0,0,0,.34-.34C67.42,28.94,67.33,28.85,67.19,28.89Z" transform="translate(-17.7 -17)"/><ellipse class="cls-75" cx="61.84" cy="29.48" rx="2.63" ry="1.48" transform="translate(-20.43 35.36) rotate(-45)"/></g></g></svg>