<svg id="Layer_1" data-name="Layer 1" xmlns="http://www.w3.org/2000/svg" viewBox="0 0 228.9 221"><defs><style>.cls-1{fill:#fff;}.cls-2{fill:#f8d2c5;}.cls-3{fill:#ff805a;}.cls-4{fill:none;stroke:#f8d2c5;stroke-miterlimit:10;}</style></defs><title>feature-frame</title><circle class="cls-1" cx="111.4" cy="110.5" r="110"/><path class="cls-2" d="M126.5,16a109.5,109.5,0,0,1,77.43,186.93A109.5,109.5,0,0,1,49.07,48.07,108.79,108.79,0,0,1,126.5,16m0-1A110.5,110.5,0,1,0,237,125.5,110.5,110.5,0,0,0,126.5,15Z" transform="translate(-15.1 -15)"/><path class="cls-1" d="M15.1,131.86l0,1.14a1.27,1.27,0,0,0,.13.58,1.24,1.24,0,0,0,.31.48,1.11,1.11,0,0,0,.49.31,1.14,1.14,0,0,0,.57.13l.4-.05a1.39,1.39,0,0,0,.66-.39l.24-.3a1.47,1.47,0,0,0,.2-.76l0-1.14a1.15,1.15,0,0,0-.13-.58,1,1,0,0,0-.31-.48,1.14,1.14,0,0,0-.48-.31,1.08,1.08,0,0,0-.58-.13l-.4,0a1.44,1.44,0,0,0-.66.39l-.24.3a1.54,1.54,0,0,0-.2.76Z" transform="translate(-15.1 -15)"/><path class="cls-1" d="M15.14,134.94l2.64,14.94c.41,2.33.73,4.7,1.32,7a48.17,48.17,0,0,0,2.38,6.57,1.56,1.56,0,0,0,1.85,1.05,1.52,1.52,0,0,0,1-1.85,51.3,51.3,0,0,1-2.32-6.35c-.63-2.36-.95-4.81-1.38-7.22L18,134.15c-.34-1.9-3.23-1.1-2.89.79Z" transform="translate(-15.1 -15)"/><circle class="cls-3" cx="4.4" cy="134.5" r="3.5"/><path class="cls-1" d="M148.81,18.75q7.4,1.86,14.7,4c1.26.37,2.51.76,3.76,1.15l1.41.44.94.29c.62.3.64.18,0-.35-.25.14.11,1.16.17,1.3a1.91,1.91,0,0,0,.95.93,8.71,8.71,0,0,0,3.42.26l-1.44-1.1.15-.67c-1.34,1.39.78,3.52,2.12,2.12a2.26,2.26,0,0,0,.62-2.25,1.51,1.51,0,0,0-1.45-1.1,7.65,7.65,0,0,0-1.85,0q-1.16-.18.27.81a3.53,3.53,0,0,0,.05-.56,2.23,2.23,0,0,0-1.55-2c-2.18-.89-4.57-1.45-6.82-2.12q-7.31-2.19-14.7-4c-1.87-.47-2.67,2.42-.8,2.9Z" transform="translate(-15.1 -15)"/><path class="cls-1" d="M217,65.37,221.47,73a83.48,83.48,0,0,1,4.28,7.68,70.45,70.45,0,0,1,2.84,8.41L231.34,98c.57,1.84,3.47,1.06,2.9-.79l-2.76-8.87a83.37,83.37,0,0,0-2.95-8.71,76.24,76.24,0,0,0-4.22-7.68l-4.73-8.08A1.5,1.5,0,0,0,217,65.37Z" transform="translate(-15.1 -15)"/><circle class="cls-3" cx="185.4" cy="21.5" r="2.5"/><circle class="cls-3" cx="226.9" cy="110" r="2"/><path class="cls-1" d="M231.85,98.29c-.06,4.5,1.68,8.85,2.23,13.28a1.54,1.54,0,0,0,1.5,1.5,1.51,1.51,0,0,0,1.5-1.5c-.29-2.28-.76-4.51-1.25-6.76a28.8,28.8,0,0,1-1-6.52c0-1.93-3-1.93-3,0Z" transform="translate(-15.1 -15)"/><circle class="cls-4" cx="112.15" cy="110.25" r="99.25"/><path class="cls-1" d="M32.44,148.8c0-2.44-.95-4.61-1.6-6.92-.73-2.63-.39-5.3-.31-8,.16-5.25-2.07-10.55-1-15.77.39-1.88-2.5-2.69-2.9-.79-1.14,5.42,1,10.66.89,16.08,0,2.69-.4,5.36.1,8,.47,2.49,1.79,4.78,1.79,7.35a1.5,1.5,0,0,0,3,0Z" transform="translate(-15.1 -15)"/><path class="cls-1" d="M30,116.86a10,10,0,0,1,0-2.44l-.05.39a10.71,10.71,0,0,1,.21-1.13,1.5,1.5,0,0,0-2.89-.8,11.59,11.59,0,0,0-.3,4,1.63,1.63,0,0,0,.44,1.06,1.54,1.54,0,0,0,1.06.44,1.56,1.56,0,0,0,1.06-.44,1.49,1.49,0,0,0,.44-1.06Z" transform="translate(-15.1 -15)"/><path class="cls-1" d="M112.92,25.22A78.59,78.59,0,0,0,96.38,28c-1.15.32-1.57,2.17-.36,2.74a6.5,6.5,0,0,0,3.93.56l-.8-2.89a91,91,0,0,0-15.8,5.26c-1.76.77-.24,3.36,1.52,2.59a87,87,0,0,1,15.08-5c1.93-.45,1.06-3.16-.8-2.89a2.8,2.8,0,0,1-1.61-.26l-.36,2.74a74.27,74.27,0,0,1,15.74-2.68c1.92-.12,1.93-3.12,0-3Z" transform="translate(-15.1 -15)"/><path class="cls-1" d="M163.52,34.9c4.52,1,8.58,3.59,12.62,5.74a56.06,56.06,0,0,1,11.19,7.17c1.44,1.27,3.57-.84,2.12-2.12a59.36,59.36,0,0,0-11.79-7.64c-4.26-2.27-8.57-5-13.34-6-1.89-.4-2.69,2.49-.8,2.89Z" transform="translate(-15.1 -15)"/><path class="cls-1" d="M117.34,222.69c-1.41.36-2.78-.32-4.08-.82a16.1,16.1,0,0,0-4.43-1.06,35.3,35.3,0,0,1-4.48-.51,35.65,35.65,0,0,1-4.52-1.37c-6.23-2.19-12.37-4.67-18.38-7.39-1.75-.8-3.28,1.79-1.52,2.59,6.39,2.89,12.9,5.54,19.53,7.85a32.56,32.56,0,0,0,4.75,1.35c1.6.3,3.22.32,4.84.51,3.12.36,5.86,2.58,9.09,1.74a1.5,1.5,0,0,0-.8-2.89Z" transform="translate(-15.1 -15)"/><circle class="cls-4" cx="111.9" cy="110" r="94.5"/><path class="cls-1" d="M34.55,118.14c-.63-4.73.9-9.58,2.07-14.11s2.28-9.13,3.73-13.6c.59-1.84-2.31-2.63-2.9-.79C36,94.26,34.82,99,33.61,103.71s-2.7,9.62-2.06,14.43a1.55,1.55,0,0,0,1.5,1.5,1.52,1.52,0,0,0,1.5-1.5Z" transform="translate(-15.1 -15)"/><path class="cls-1" d="M76.3,202.5c-2.83-1.1-4.89-3.61-6.93-5.75-2.21-2.32-4.63-4.55-7.79-5.42-1-.28-2.28.74-1.85,1.84a8.59,8.59,0,0,0,5.05,5,1.5,1.5,0,0,0,1.84-1.84,12.06,12.06,0,0,0-6.43-7,1.55,1.55,0,0,0-2,.54,1.51,1.51,0,0,0,.54,2.05,9.21,9.21,0,0,1,5,5.16l1.84-1.85a5.25,5.25,0,0,1-2.94-2.91l-1.85,1.85c2.94.81,5,3.15,7.08,5.29,2.24,2.38,4.55,4.68,7.65,5.88a1.5,1.5,0,0,0,1.84-1,1.54,1.54,0,0,0-1-1.85Z" transform="translate(-15.1 -15)"/><path class="cls-1" d="M182.42,51.15q8,6.23,15.46,13c1.43,1.29,3.56-.82,2.12-2.12q-7.5-6.76-15.46-13a1.54,1.54,0,0,0-2.12,0,1.51,1.51,0,0,0,0,2.12Z" transform="translate(-15.1 -15)"/><path class="cls-1" d="M198.53,65.25l.09.07-.3-.24a2.57,2.57,0,0,1,.33.33l-.24-.3a1.76,1.76,0,0,1,.26.44l-.15-.35a1.69,1.69,0,0,1,.14.5l0-.4a2.26,2.26,0,0,1,0,.52l0-.4a.78.78,0,0,1,0,.14,1.54,1.54,0,0,0,.15,1.15,1.54,1.54,0,0,0,.89.69,1.51,1.51,0,0,0,1.16-.15,1.47,1.47,0,0,0,.69-.89,3.85,3.85,0,0,0,.09-.67,1.61,1.61,0,0,0,0-.31,3.55,3.55,0,0,0-.19-1,5.15,5.15,0,0,0-.27-.59,3.48,3.48,0,0,0-.28-.39,2.17,2.17,0,0,0-.31-.37,4.07,4.07,0,0,0-.52-.41,1.16,1.16,0,0,0-.56-.18,1.12,1.12,0,0,0-.6,0,1,1,0,0,0-.51.27,1.13,1.13,0,0,0-.39.42,1.54,1.54,0,0,0-.15,1.15l.15.36a1.55,1.55,0,0,0,.54.54Z" transform="translate(-15.1 -15)"/><path class="cls-1" d="M205.09,74.42A70,70,0,0,1,212,92.13c.46,1.88,3.35,1.08,2.9-.8a73.17,73.17,0,0,0-7.23-18.42c-.94-1.69-3.53-.18-2.59,1.51Z" transform="translate(-15.1 -15)"/><path class="cls-1" d="M211.91,85.23a31.64,31.64,0,0,1,1.25,4.27c.15.7.27,1.41.38,2.11,0,.19,0,.22,0,.1l0,.24.06.58c0,.38.07.76.09,1.15a1.5,1.5,0,0,0,3,0,32.53,32.53,0,0,0-1.93-9.25,1.5,1.5,0,0,0-2.89.8Z" transform="translate(-15.1 -15)"/></svg>