<svg id="Layer_1" data-name="Layer 1" xmlns="http://www.w3.org/2000/svg" viewBox="0 0 1297.06 311.85"><defs><style>.cls-1{fill:#ff3a40;}.cls-2{fill:#ff4e57;}.cls-3{fill:#ff3336;}.cls-4{fill:#f82223;}</style></defs><title>jupitur</title><path class="cls-1" d="M1658.28,821.42H362q4.65-5.86,9.44-11.63l3.43-4.11a.76.76,0,0,1,.11-.14q3.17-3.76,6.38-7.5c.91-1.07,1.83-2.14,2.76-3.2s1.88-2.17,2.84-3.25c.36-.42.72-.83,1.09-1.24h0l.94-1.06c1.54-1.75,3.1-3.49,4.66-5.22s3.38-3.74,5.09-5.6l1.12-1.23q2.58-2.81,5.19-5.58c1.5-1.6,3-3.19,4.52-4.77s3-3.16,4.56-4.74c.2-.22.41-.43.62-.65q4.77-4.92,9.65-9.78c1.14-1.14,2.29-2.28,3.44-3.4l2.1-2.07c1.12-1.1,2.25-2.19,3.39-3.29.39-.39.79-.77,1.2-1.15,1.47-1.45,2.95-2.86,4.44-4.25,1.74-1.65,3.48-3.29,5.24-4.92q6.31-5.88,12.77-11.65c1.64-1.47,3.3-2.94,5-4.4,1.85-1.63,3.72-3.25,5.59-4.86.17-.16.35-.31.53-.46q5.64-4.87,11.37-9.64l.32-.26c2-1.66,4-3.32,6-5l.09-.07a828.27,828.27,0,0,1,131.91-87.89l4.51-2.41,4.09-2.15,3-1.56,3.42-1.76,2.16-1.11,3.38-1.7,3.39-1.68a830.33,830.33,0,0,1,147.6-56.5l4.24-1.17,3.72-1c2.87-.76,5.74-1.52,8.61-2.25l6.71-1.69h0q3.35-.83,6.71-1.62c2.17-.52,4.34-1,6.52-1.52l1-.24,4.77-1.07c1.53-.34,3.06-.68,4.59-1l2.16-.46,3.6-.75,4-.84,6.12-1.22,3.69-.7,3.89-.73q3.38-.63,6.76-1.22l.25-.05L873,521q6.87-1.16,13.76-2.19l7.22-1,7.22-1q10.83-1.44,21.67-2.58c1.79-.19,3.57-.37,5.36-.54l3.56-.34,1.35-.13,2.27-.22.34,0h.08l4.73-.41,2-.16,4.95-.39.24,0,2.26-.16q5-.36,10-.66c1.49-.1,3-.18,4.47-.26l3-.16c1.75-.09,3.51-.18,5.27-.25l1.69-.08,3.44-.14,3.86-.14,6.18-.19,7.21-.16,7.21-.09q5.86-.06,11.72,0l4.52,0q6.77.08,13.52.26c4.51.13,9,.28,13.51.48l4.5.21,4.5.23q4.13.22,8.25.49,13.83.9,27.61,2.25l4.47.45q7.47.78,14.94,1.69c2,.25,4,.49,6,.75q9.57,1.24,19.09,2.7,3.61.55,7.22,1.14c1.46.23,2.92.47,4.37.72s3.17.53,4.76.81l3.28.58q10.58,1.88,21.11,4l5,1,1.21.26,1.61.35q3.3.7,6.59,1.44l1.62.36,4.74,1.08,1.18.28,4.25,1c1.67.39,3.34.8,5,1.21s3.41.83,5.12,1.27l2.88.73,2.45.63,2,.53c1.46.38,2.92.76,4.37,1.16,1.6.43,3.2.85,4.79,1.29l.17,0,3.87,1.08,4.45,1.25,4.44,1.28,4.21,1.23,4.58,1.38,4.4,1.34,4.36,1.36,5,1.6,1.87.6c1.68.54,3.35,1.09,5,1.65q2.9.95,5.77,1.93l2.59.89,5.64,2,3.5,1.23,2.36.84q5.46,2,10.9,4t10.84,4.15q5.4,2.11,10.78,4.31l4,1.65q4,1.66,8,3.37l4,1.72c2.85,1.24,5.71,2.49,8.55,3.75l3.4,1.53q6.45,2.91,12.86,5.93l3,1.4c4,1.87,7.89,3.79,11.8,5.73l3.7,1.84q7.51,3.76,15,7.69l4.59,2.44,4,2.17,3.12,1.7q10.35,5.67,20.54,11.64c1.23.71,2.46,1.44,3.69,2.17,1.86,1.1,3.71,2.2,5.56,3.32q3.08,1.85,6.13,3.74c.79.47,1.57,1,2.36,1.45q2.73,1.68,5.46,3.41l4.42,2.8q6.84,4.36,13.61,8.89,3.38,2.25,6.74,4.55t6.71,4.61q3.84,2.69,7.67,5.41c1.37,1,2.74,2,4.11,2.95q4.19,3,8.33,6.09,2.74,2,5.46,4.08,3.67,2.77,7.3,5.57a.83.83,0,0,0,.16.12q3.78,2.94,7.55,5.9c2.51,2,5,4,7.49,6l4.4,3.58q3.43,2.82,6.83,5.68l3.6,3q24.38,20.73,47.26,43.44,2,2,4,4c.54.54,1.07,1.07,1.59,1.61q1.92,1.93,3.82,3.89,3.64,3.75,7.26,7.54l3.37,3.57q3.36,3.58,6.69,7.22t6.61,7.3c1.09,1.22,2.19,2.45,3.27,3.68q3.3,3.7,6.5,7.44c1.07,1.24,2.15,2.49,3.21,3.75s2.14,2.51,3.2,3.77c1.61,1.91,3.21,3.84,4.81,5.77l1.71,2.08c1.13,1.37,2.26,2.75,3.37,4.14.23.28.46.55.67.83C1656,818.53,1657.13,820,1658.28,821.42Z" transform="translate(-361.22 -509.57)"/><path class="cls-2" d="M1658.28,821.42H362q4.65-5.86,9.44-11.63l3.43-4.11a.76.76,0,0,1,.11-.14q3.17-3.76,6.38-7.5c.91-1.07,1.83-2.14,2.76-3.2s1.88-2.17,2.84-3.25c.36-.42.72-.83,1.09-1.24h0l.94-1.06c1.54-1.75,3.1-3.49,4.66-5.22s3.38-3.74,5.09-5.6l1.12-1.23q2.58-2.81,5.19-5.58c1.5-1.6,3-3.19,4.52-4.77s3-3.16,4.56-4.74c.2-.22.41-.43.62-.65q4.77-4.92,9.65-9.78c1.14-1.14,2.29-2.28,3.44-3.4l2.1-2.07c1.12-1.1,2.25-2.19,3.39-3.29.39-.39.79-.77,1.2-1.15,1.47-1.45,2.95-2.86,4.44-4.25,1.74-1.65,3.48-3.29,5.24-4.92q6.31-5.88,12.77-11.65c1.64-1.47,3.3-2.94,5-4.4,1.85-1.63,3.72-3.25,5.59-4.86.17-.16.35-.31.53-.46q5.64-4.87,11.37-9.64l.32-.26c2-1.66,4-3.32,6-5l.09-.07a828.27,828.27,0,0,1,131.91-87.89l4.51-2.41,4.09-2.15,3-1.56,3.42-1.76,2.16-1.11,3.38-1.7,3.39-1.68a830.33,830.33,0,0,1,147.6-56.5l4.24-1.17,3.72-1c2.87-.76,5.74-1.52,8.61-2.25l6.71-1.69h0q3.35-.83,6.71-1.62c2.17-.52,4.34-1,6.52-1.52l1-.24,4.77-1.07c1.53-.34,3.06-.68,4.59-1l2.16-.46,3.6-.75,4-.84,6.12-1.22,3.69-.7,3.89-.73q3.38-.63,6.76-1.22l.25-.05L873,521q6.87-1.16,13.76-2.19l7.22-1,7.22-1q10.83-1.44,21.67-2.58c1.79-.19,3.57-.37,5.36-.54l3.56-.34,1.35-.13,2.27-.22.34,0h.08l4.73-.41,2-.16,4.95-.39.24,0,2.26-.16q5-.36,10-.66c1.49-.1,3-.18,4.47-.26l3-.16c1.75-.09,3.51-.18,5.27-.25l1.69-.08,3.44-.14,3.86-.14,6.18-.19,7.21-.16,7.21-.09q5.86-.06,11.72,0l4.52,0q6.77.08,13.52.26c4.51.13,9,.28,13.51.48l4.5.21,4.5.23q4.13.22,8.25.49,13.83.9,27.61,2.25l4.47.45q7.47.78,14.94,1.69c2,.25,4,.49,6,.75q9.57,1.24,19.09,2.7,3.61.55,7.22,1.14c1.46.23,2.92.47,4.37.72s3.17.53,4.76.81l3.28.58q10.58,1.88,21.11,4l5,1,1.21.26,1.61.35q3.3.7,6.59,1.44l1.62.36,4.74,1.08,1.18.28,4.25,1c1.67.39,3.34.8,5,1.21s3.41.83,5.12,1.27l2.88.73,2.45.63,2,.53c1.46.38,2.92.76,4.37,1.16,1.6.43,3.2.85,4.79,1.29l.17,0,3.87,1.08,4.45,1.25,4.44,1.28,4.21,1.23,4.58,1.38,4.4,1.34,4.36,1.36,5,1.6,1.87.6c1.68.54,3.35,1.09,5,1.65q2.9.95,5.77,1.93l2.59.89,5.64,2,3.5,1.23,2.36.84q5.46,2,10.9,4t10.84,4.15q5.4,2.11,10.78,4.31l4,1.65q4,1.66,8,3.37l4,1.72c2.85,1.24,5.71,2.49,8.55,3.75l3.4,1.53q6.45,2.91,12.86,5.93l3,1.4c4,1.87,7.89,3.79,11.8,5.73l3.7,1.84q7.51,3.76,15,7.69l4.59,2.44,4,2.17,3.12,1.7q10.35,5.67,20.54,11.64c1.23.71,2.46,1.44,3.69,2.17,1.86,1.1,3.71,2.2,5.56,3.32q3.08,1.85,6.13,3.74c.79.47,1.57,1,2.36,1.45q2.73,1.68,5.46,3.41l4.42,2.8q6.84,4.36,13.61,8.89,3.38,2.25,6.74,4.55t6.71,4.61q3.84,2.69,7.67,5.41c1.37,1,2.74,2,4.11,2.95q4.19,3,8.33,6.09,2.74,2,5.46,4.08,3.67,2.77,7.3,5.57a.83.83,0,0,0,.16.12q3.78,2.94,7.55,5.9c2.51,2,5,4,7.49,6l4.4,3.58q3.43,2.82,6.83,5.68l3.6,3q24.38,20.73,47.26,43.44,2,2,4,4c.54.54,1.07,1.07,1.59,1.61q1.92,1.93,3.82,3.89,3.64,3.75,7.26,7.54l3.37,3.57q3.36,3.58,6.69,7.22t6.61,7.3c1.09,1.22,2.19,2.45,3.27,3.68q3.3,3.7,6.5,7.44c1.07,1.24,2.15,2.49,3.21,3.75s2.14,2.51,3.2,3.77c1.61,1.91,3.21,3.84,4.81,5.77l1.71,2.08c1.13,1.37,2.26,2.75,3.37,4.14.23.28.46.55.67.83C1656,818.53,1657.13,820,1658.28,821.42Z" transform="translate(-361.22 -509.57)"/><path class="cls-3" d="M1658.28,821.42H362q4.65-5.86,9.44-11.63l3.43-4.11a.76.76,0,0,1,.11-.14q3.17-3.76,6.38-7.5c.91-1.07,1.83-2.14,2.76-3.2s1.88-2.17,2.84-3.25c.36-.42.72-.83,1.09-1.24h0l.94-1.06c1.54-1.75,3.1-3.49,4.66-5.22s3.38-3.74,5.09-5.6l1.12-1.23q2.58-2.81,5.19-5.58c1.5-1.6,3-3.19,4.52-4.77s3-3.16,4.56-4.74c.2-.22.41-.43.62-.65q4.77-4.92,9.65-9.78c1.14-1.14,2.29-2.28,3.44-3.4l2.1-2.07c1.12-1.1,2.25-2.19,3.39-3.29.39-.39.79-.77,1.2-1.15,1.47-1.45,2.95-2.86,4.44-4.25,1.74-1.65,3.48-3.29,5.24-4.92q6.31-5.88,12.77-11.65c1.64-1.47,3.3-2.94,5-4.4,1.85-1.63,3.72-3.25,5.59-4.86.17-.16.35-.31.53-.46q5.64-4.87,11.37-9.64l.32-.26c2-1.66,4-3.32,6-5l.09-.07a828.27,828.27,0,0,1,131.91-87.89l4.51-2.41,4.09-2.15,3-1.56,3.42-1.76,2.16-1.11,3.38-1.7,3.39-1.68a830.33,830.33,0,0,1,147.6-56.5l4.24-1.17,3.72-1c2.87-.76,5.74-1.52,8.61-2.25l6.71-1.69h0q3.35-.83,6.71-1.62c2.17-.52,4.34-1,6.52-1.52l1-.24,4.77-1.07c1.53-.34,3.06-.68,4.59-1l2.16-.46,3.6-.75,4-.84,6.12-1.22,3.69-.7,3.89-.73q3.38-.63,6.76-1.22l.25-.05L873,521q6.87-1.16,13.76-2.19l7.22-1,7.22-1q10.83-1.44,21.67-2.58c1.79-.19,3.57-.37,5.36-.54l3.56-.34,1.35-.13,2.27-.22.34,0h.08l4.73-.41,2-.16,4.95-.39.24,0,2.26-.16q5-.36,10-.66c1.49-.1,3-.18,4.47-.26l3-.16c1.75-.09,3.51-.18,5.27-.25l1.69-.08,3.44-.14,3.86-.14,6.18-.19,7.21-.16,7.21-.09q5.86-.06,11.72,0l4.52,0q6.77.08,13.52.26c4.51.13,9,.28,13.51.48l4.5.21,4.5.23q4.13.22,8.25.49,13.83.9,27.61,2.25l4.47.45q7.47.78,14.94,1.69c2,.25,4,.49,6,.75q9.57,1.24,19.09,2.7,3.61.55,7.22,1.14c1.46.23,2.92.47,4.37.72s3.17.53,4.76.81l3.28.58q10.58,1.88,21.11,4l5,1,1.21.26,1.61.35q3.3.7,6.59,1.44l1.62.36,4.74,1.08,1.18.28,4.25,1c1.67.39,3.34.8,5,1.21s3.41.83,5.12,1.27l2.88.73,2.45.63,2,.53c1.46.38,2.92.76,4.37,1.16,1.6.43,3.2.85,4.79,1.29l.17,0,3.87,1.08,4.45,1.25,4.44,1.28,4.21,1.23,4.58,1.38,4.4,1.34,4.36,1.36,5,1.6,1.87.6c1.68.54,3.35,1.09,5,1.65q2.9.95,5.77,1.93l2.59.89,5.64,2,3.5,1.23,2.36.84q5.46,2,10.9,4t10.84,4.15q5.4,2.11,10.78,4.31l4,1.65q4,1.66,8,3.37l4,1.72c2.85,1.24,5.71,2.49,8.55,3.75l3.4,1.53q6.45,2.91,12.86,5.93l3,1.4c4,1.87,7.89,3.79,11.8,5.73l3.7,1.84q7.51,3.76,15,7.69l4.59,2.44,4,2.17,3.12,1.7q10.35,5.67,20.54,11.64c1.23.71,2.46,1.44,3.69,2.17,1.86,1.1,3.71,2.2,5.56,3.32q3.08,1.85,6.13,3.74c.79.47,1.57,1,2.36,1.45q2.73,1.68,5.46,3.41l4.42,2.8q6.84,4.36,13.61,8.89,3.38,2.25,6.74,4.55t6.71,4.61q3.84,2.69,7.67,5.41c1.37,1,2.74,2,4.11,2.95q4.19,3,8.33,6.09,2.74,2,5.46,4.08,3.67,2.77,7.3,5.57a.83.83,0,0,0,.16.12q3.78,2.94,7.55,5.9c2.51,2,5,4,7.49,6l4.4,3.58q3.43,2.82,6.83,5.68l3.6,3q24.38,20.73,47.26,43.44,2,2,4,4c.54.54,1.07,1.07,1.59,1.61q1.92,1.93,3.82,3.89,3.64,3.75,7.26,7.54l3.37,3.57q3.36,3.58,6.69,7.22t6.61,7.3c1.09,1.22,2.19,2.45,3.27,3.68q3.3,3.7,6.5,7.44c1.07,1.24,2.15,2.49,3.21,3.75s2.14,2.51,3.2,3.77c1.61,1.91,3.21,3.84,4.81,5.77l1.71,2.08c1.13,1.37,2.26,2.75,3.37,4.14.23.28.46.55.67.83C1656,818.53,1657.13,820,1658.28,821.42Z" transform="translate(-361.22 -509.57)"/><path class="cls-4" d="M745.46,821.42H721.6L605.88,650l11.87-41.58,4.51-2.41q3.54-1.86,7.09-3.71l3.42-1.76,2.16-1.1,3.38-1.71,3.39-1.68c6.78-3.34,13.58-6.56,20.4-9.72l-28.66,57.53Z" transform="translate(-361.22 -509.57)"/><polygon class="cls-4" points="802.04 311.85 787.47 311.85 761.73 257.51 504.17 218.18 753.11 240.34 766.76 241.56 802.04 311.85"/><path class="cls-1" d="M1401.85,821.42H1163.26L1128,751.13l-13.65-1.22L865.39,727.75,761,821.42H745.46l-112-177.55,28.66-57.53a831.25,831.25,0,0,1,107.17-41q4.9-1.5,9.81-2.93,13.36-3.9,26.79-7.32l6.71-1.69h0q3.35-.83,6.71-1.62c2.17-.52,4.34-1,6.52-1.52l1-.24,4.77-1.07c1.53-.34,3.06-.68,4.59-1l2.16-.46,3.6-.75,4-.84,6.12-1.22,3.69-.7,3.89-.73q3.38-.63,6.76-1.22c2.17-.39,4.34-.76,6.52-1.13q6.87-1.16,13.76-2.19l7.22-1,7.22-1q10.83-1.44,21.67-2.58c1.79-.19,3.57-.37,5.36-.54l3.56-.34,1.35-.13,2.61-.24h.08l4.73-.41,2-.16,4.95-.39.24,0,2.26-.16q5-.36,10-.66c1.49-.1,3-.18,4.47-.26l3-.16c1.75-.09,3.51-.18,5.27-.25l1.69-.08,3.44-.14,3.86-.14,6.18-.19,7.21-.16,7.21-.09c3.91,0,7.82,0,11.72,0l4.52,0q6.77.08,13.52.26c4.51.13,9,.28,13.51.48l4.5.21,4.5.23q4.13.22,8.25.49,13.83.9,27.61,2.25l4.47.45q7.47.78,14.94,1.69c2,.25,4,.49,6,.75q9.57,1.24,19.09,2.7,3.61.55,7.22,1.14c1.46.23,2.92.47,4.37.72s3.17.53,4.76.81l3.28.58q10.58,1.88,21.11,4l5,1,1.21.26,1.61.35q3.3.7,6.59,1.44l1.62.36,4.74,1.08,1.18.28,4.25,1q2.5.59,5,1.21c1.71.41,3.41.83,5.12,1.27l2.88.73,2.45.63,2,.53c1.46.38,2.92.76,4.37,1.16,1.6.43,3.2.85,4.79,1.29l.17,0,3.87,1.08,4.45,1.25,4.44,1.28,4.21,1.23,4.58,1.38,4.4,1.34,4.36,1.36,5,1.6,1.87.6c1.68.54,3.35,1.09,5,1.65q2.9.95,5.77,1.93l2.59.89,5.64,2,3.5,1.23,2.36.84,2.66,11.63,60.17,51.22Z" transform="translate(-361.22 -509.57)"/><path class="cls-2" d="M1317.22,821.42h-45.79a338,338,0,0,1-6.34-44.38c-1.2-14.92-1.54-31.77-11.43-44-12.16-15-33.56-18.44-51.09-23-27.46-7.15-43.36-21.77-60.89-42.83-28.38-34.11-60.43-53.31-104.85-38-48.85,16.87-89,48.36-143.14,48.12C819.2,677,772.09,618.78,740,555q14.61-5.06,29.31-9.56,4.9-1.5,9.81-2.93c27.19,43.33,56.06,86.34,105.29,99.62,43.1,11.62,78.33-6.65,113.27-29.84,21.26-14.11,43.76-30.26,69.08-35.91,34-7.58,51.73,10.7,65.67,39,9.61,19.5,19.94,40.72,40.67,50.48,20.5,9.65,45.07,7.21,67,8.32,35.16,1.78,65.58,16.73,74.1,54C1321.13,758.52,1315,790.52,1317.22,821.42Z" transform="translate(-361.22 -509.57)"/><path class="cls-4" d="M1654.82,817.1c1.16,1.43,2.31,2.88,3.46,4.32H1385.12L1337.53,625.8l-48.88-44,2.2-23.12q5.46,2,10.9,4,10.86,4.08,21.62,8.46,8.06,3.29,16.06,6.74c2.85,1.24,5.71,2.49,8.55,3.75l3.4,1.53q6.45,2.91,12.86,5.93l3,1.4c4,1.87,7.89,3.79,11.8,5.73l3.7,1.84q7.51,3.76,15,7.69l4.59,2.44,4,2.17,3.12,1.7q10.35,5.67,20.54,11.64c1.23.71,2.46,1.44,3.69,2.17,1.86,1.1,3.71,2.2,5.56,3.32q3.08,1.85,6.13,3.74c.79.47,1.57,1,2.36,1.45q2.73,1.68,5.46,3.41l4.42,2.8q6.84,4.38,13.61,8.89,3.38,2.25,6.74,4.55t6.71,4.61q3.84,2.69,7.67,5.41c1.37,1,2.74,2,4.11,2.95q4.19,3,8.33,6.09,2.74,2,5.46,4.08,3.67,2.77,7.3,5.57a.83.83,0,0,0,.16.12q3.78,2.94,7.55,5.9c2.51,2,5,4,7.49,6l4.4,3.58q3.43,2.83,6.83,5.68l3.6,3q24.38,20.73,47.26,43.44,2,2,4,4c.54.54,1.07,1.07,1.59,1.61q1.92,1.93,3.82,3.89,3.64,3.75,7.26,7.54l3.37,3.57q3.36,3.58,6.69,7.22t6.61,7.3c1.09,1.22,2.19,2.45,3.27,3.68,2.18,2.47,4.35,4.94,6.5,7.44,1.07,1.24,2.15,2.49,3.21,3.75s2.14,2.51,3.2,3.77c1.61,1.91,3.21,3.84,4.81,5.77l1.71,2.08c1.13,1.37,2.26,2.75,3.37,4.14C1654.38,816.55,1654.61,816.82,1654.82,817.1Z" transform="translate(-361.22 -509.57)"/><path class="cls-3" d="M1654.82,817.1c1.16,1.43,2.31,2.88,3.46,4.32H1401.85l-48.17-199.86-60.17-51.22-2.66-11.63q5.46,2,10.9,4,10.86,4.08,21.62,8.46,8.06,3.29,16.06,6.74c2.85,1.24,5.71,2.49,8.55,3.75l3.4,1.53q6.45,2.91,12.86,5.93l3,1.4c4,1.87,7.89,3.79,11.8,5.73l3.7,1.84q7.51,3.76,15,7.69l4.59,2.44,4,2.17,3.12,1.7q10.35,5.67,20.54,11.64c1.23.71,2.46,1.44,3.69,2.17,1.86,1.1,3.71,2.2,5.56,3.32q3.08,1.85,6.13,3.74c.79.47,1.57,1,2.36,1.45q2.73,1.68,5.46,3.41l4.42,2.8q6.84,4.38,13.61,8.89,3.38,2.25,6.74,4.55t6.71,4.61q3.84,2.69,7.67,5.41c1.37,1,2.74,2,4.11,2.95q4.19,3,8.33,6.09,2.74,2,5.46,4.08,3.67,2.77,7.3,5.57a.83.83,0,0,0,.16.12q3.78,2.94,7.55,5.9c2.51,2,5,4,7.49,6l4.4,3.58q3.43,2.83,6.83,5.68l3.6,3q24.38,20.73,47.26,43.44,2,2,4,4c.54.54,1.07,1.07,1.59,1.61q1.92,1.93,3.82,3.89,3.64,3.75,7.26,7.54l3.37,3.57q3.36,3.58,6.69,7.22t6.61,7.3c1.09,1.22,2.19,2.45,3.27,3.68,2.18,2.47,4.35,4.94,6.5,7.44,1.07,1.24,2.15,2.49,3.21,3.75s2.14,2.51,3.2,3.77c1.61,1.91,3.21,3.84,4.81,5.77l1.71,2.08c1.13,1.37,2.26,2.75,3.37,4.14C1654.38,816.55,1654.61,816.82,1654.82,817.1Z" transform="translate(-361.22 -509.57)"/><path class="cls-4" d="M614.59,818.15l-.42,2.35H603.41l2.07-10.71L485.75,695.47l.09-.07Z" transform="translate(-361.22 -509.57)"/><path class="cls-1" d="M605.48,809.79l-2.07,10.71H407.85L388,789.43h0l.94-1.06c1.54-1.75,3.1-3.49,4.66-5.22s3.38-3.74,5.09-5.6l1.12-1.23q2.58-2.8,5.19-5.58c1.5-1.6,3-3.19,4.52-4.77,1.71-1.8,3.43-3.6,5.18-5.39q4.77-4.92,9.65-9.78c1.14-1.14,2.29-2.28,3.44-3.4l2.1-2.07c1.12-1.1,2.25-2.19,3.39-3.29.39-.39.79-.77,1.2-1.15,1.47-1.43,2.95-2.84,4.44-4.25,1.74-1.65,3.48-3.29,5.24-4.92q6.31-5.88,12.77-11.65c1.64-1.47,3.3-2.94,5-4.4,1.85-1.63,3.72-3.25,5.59-4.86.17-.16.35-.31.53-.46q5.64-4.86,11.37-9.64l.32-.26c2-1.66,4-3.32,6-5Z" transform="translate(-361.22 -509.57)"/><path class="cls-2" d="M497.56,820.5H471.91c.19-8.35.49-16.72-.68-25A82.42,82.42,0,0,0,454,756.07,101.86,101.86,0,0,0,436.54,739q8.77-8.37,17.8-16.52,5,3.69,9.92,7.57c14.05,11.19,29.45,24.58,35.09,42.22C504.61,788.69,498.5,804,497.56,820.5Z" transform="translate(-361.22 -509.57)"/><path class="cls-4" d="M362,820.5c-.25.3-.5.61-.74.92l.73-.92Z" transform="translate(-361.22 -509.57)"/><path class="cls-4" d="M415.17,820.5H362q4.65-5.87,9.44-11.63l3.43-4.11a.76.76,0,0,1,.11-.14q3.17-3.76,6.38-7.5c.91-1.07,1.83-2.14,2.76-3.2s1.88-2.17,2.84-3.25c.36-.42.72-.83,1.09-1.24Z" transform="translate(-361.22 -509.57)"/><path class="cls-3" d="M362,820.5c-.25.3-.5.61-.74.92l.73-.92Z" transform="translate(-361.22 -509.57)"/><path class="cls-3" d="M407.85,820.5H362q4.65-5.87,9.44-11.63l3.43-4.11a.76.76,0,0,1,.11-.14q3.17-3.76,6.38-7.5c.91-1.07,1.83-2.14,2.76-3.2s1.88-2.17,2.84-3.25c.36-.42.72-.83,1.09-1.24Z" transform="translate(-361.22 -509.57)"/></svg>