<svg id="Layer_1" data-name="Layer 1" xmlns="http://www.w3.org/2000/svg" xmlns:xlink="http://www.w3.org/1999/xlink" viewBox="0 0 20.4 31.99"><defs><style>.cls-1{fill:url(#linear-gradient);}</style><linearGradient id="linear-gradient" x1="79.16" y1="189.46" x2="100.6" y2="167.56" gradientTransform="translate(-152.91 43.96) rotate(-61.2)" gradientUnits="userSpaceOnUse"><stop offset="0" stop-color="#00cecb"/><stop offset="1" stop-color="#0093e9"/><stop offset="1" stop-color="#00cecb"/><stop offset="1" stop-color="#2285e7"/></linearGradient></defs><title>progress-rocket</title><path class="cls-1" d="M43.54,49.82l0,4.1-3.62,3.54-.08,8.33a22.6,22.6,0,0,1,8.76-2.25,14.18,14.18,0,0,1,2.84,0A22.65,22.65,0,0,1,60.12,66l.08-8.32-3.55-3.62L56.7,50A22.47,22.47,0,0,0,50.28,34,22.4,22.4,0,0,0,43.54,49.82ZM53.07,48a2.93,2.93,0,1,1-2.9-3A2.94,2.94,0,0,1,53.07,48Z" transform="translate(-39.8 -34.01)"/></svg>