<svg id="Layer_1" data-name="Layer 1" xmlns="http://www.w3.org/2000/svg" xmlns:xlink="http://www.w3.org/1999/xlink" viewBox="0 0 20.32 31.89"><defs><style>.cls-1{fill:url(#Áåçûìÿííûé_ãðàäèåíò_66);}</style><linearGradient id="Áåçûìÿííûé_ãðàäèåíò_66" x1="84.87" y1="120.97" x2="105.37" y2="100.03" gradientTransform="translate(-95.29 33.84) rotate(-45)" gradientUnits="userSpaceOnUse"><stop offset="0" stop-color="#ffc536"/><stop offset="0.5" stop-color="#ff8955"/><stop offset="1" stop-color="#cc272a"/></linearGradient></defs><title>progress-rocket</title><path class="cls-1" d="M43.67,45.83v4.1l-3.58,3.58v8.33a22.54,22.54,0,0,1,8.74-2.34,13.48,13.48,0,0,1,2.84,0,22.54,22.54,0,0,1,8.73,2.34V53.51l-3.58-3.58v-4.1A22.42,22.42,0,0,0,50.24,30,22.45,22.45,0,0,0,43.67,45.83Zm9.51-1.9A2.94,2.94,0,1,1,50.24,41,2.94,2.94,0,0,1,53.18,43.93Z" transform="translate(-40.09 -29.95)"/></svg>