<svg id="Layer_1" data-name="Layer 1" xmlns="http://www.w3.org/2000/svg" xmlns:xlink="http://www.w3.org/1999/xlink" viewBox="0 0 20.34 31.92"><defs><style>.cls-1{fill:url(#linear-gradient);}</style><linearGradient id="linear-gradient" x1="37.56" y1="58.12" x2="59" y2="36.22" gradientTransform="translate(-17.56 67.9) rotate(-61.6)" gradientUnits="userSpaceOnUse"><stop offset="0" stop-color="#ffc837"/><stop offset="1" stop-color="#ff8008"/></linearGradient></defs><title>progress-rocket</title><path class="cls-1" d="M43.61,46.51v4.1L40,54.18l0,8.33a22.56,22.56,0,0,1,8.75-2.31,14.19,14.19,0,0,1,2.84,0,22.74,22.74,0,0,1,8.73,2.36l0-8.32-3.57-3.6v-4.1a22.5,22.5,0,0,0-6.52-15.9A22.46,22.46,0,0,0,43.61,46.51Zm9.51-1.87A2.93,2.93,0,1,1,50.2,41.7,2.92,2.92,0,0,1,53.12,44.64Z" transform="translate(-39.98 -30.65)"/></svg>