<svg id="Layer_1" data-name="Layer 1" xmlns="http://www.w3.org/2000/svg" viewBox="0 0 263.69 363.56"><defs><style>.cls-1,.cls-9{fill:#ffc800;}.cls-2{opacity:0.1;}.cls-3{fill:#c8c8c8;}.cls-4{fill:#a8a8a8;}.cls-5,.cls-7{fill:#fff;}.cls-6{fill:#ececec;}.cls-7{opacity:0.2;}.cls-8{fill:#fbfbfb;}.cls-9{opacity:0.6;}</style></defs><title>rocket-pool</title><path class="cls-1" d="M975.73,420.41c.68-.8,39.84-19,75.3,8.1,32.6,24.88,43.92,71.64,39.59,72.76-5.3,1.37-19.82-20.95-47.7-33.21-9.89-4.34-25.63,0-25.63,0Z" transform="translate(-828.32 -359.67)"/><path class="cls-2" d="M1017.28,468.06a61.91,61.91,0,0,1,14.32-1.93c-6.15-12.86-17.63-36.87-25.08-52.42-17.55.16-30.4,6.24-30.79,6.7Z" transform="translate(-828.32 -359.67)"/><path class="cls-1" d="M911.23,496.49c-.68.81-12.2,42.41,20.3,73,29.88,28.1,77.86,31.61,78.26,27.16.48-5.45-23.91-16.13-40.56-41.63-5.91-9-4.2-25.28-4.2-25.28Z" transform="translate(-828.32 -359.67)"/><path class="cls-2" d="M909.68,528.17l55.83,16.25A62.22,62.22,0,0,1,965,529.7l-53.8-33.21C910.84,497,906.9,510.74,909.68,528.17Z" transform="translate(-828.32 -359.67)"/><path class="cls-3" d="M1002.4,547.35l38.24-45.1s-19.94-53.48-67.35-89.41c-23.68-17.92-51.45-31.33-76.31-40.21-34.31-12.3-63-15.86-67.47-10.62s3.77,33,21.5,64.85c12.84,23.05,30.62,48.25,52.16,68.67C946.37,536.43,1002.4,547.35,1002.4,547.35Z" transform="translate(-828.32 -359.67)"/><path class="cls-4" d="M909.49,476.22a34.1,34.1,0,1,0-4-48.07A34.1,34.1,0,0,0,909.49,476.22Z" transform="translate(-828.32 -359.67)"/><path class="cls-1" d="M907.62,473.05a34.1,34.1,0,1,0-4-48.07A34.1,34.1,0,0,0,907.62,473.05Z" transform="translate(-828.32 -359.67)"/><path class="cls-5" d="M914.37,465.07a23.65,23.65,0,1,0-2.72-33.34A23.67,23.67,0,0,0,914.37,465.07Z" transform="translate(-828.32 -359.67)"/><path class="cls-6" d="M914.37,465.07a23.65,23.65,0,0,0,7.56,4.33l19-1.56A23.51,23.51,0,0,0,951.13,457l-41,3.35A23.34,23.34,0,0,0,914.37,465.07Z" transform="translate(-828.32 -359.67)"/><path class="cls-6" d="M909.6,434.54l37.87-3.09A22.89,22.89,0,0,0,945,429a23.65,23.65,0,0,0-33.34,2.72A22.61,22.61,0,0,0,909.6,434.54Z" transform="translate(-828.32 -359.67)"/><path class="cls-6" d="M907.55,455.4l45.31-3.69a21,21,0,0,0,.32-2.11l-46.29,3.78C907.07,454.06,907.3,454.73,907.55,455.4Z" transform="translate(-828.32 -359.67)"/><path class="cls-1" d="M851,426.86l46-54.23c-34.31-12.3-63-15.86-67.47-10.62S833.28,395,851,426.86Z" transform="translate(-828.32 -359.67)"/><path class="cls-5" d="M883.47,377.22a2,2,0,1,0-.23-2.81A2,2,0,0,0,883.47,377.22Z" transform="translate(-828.32 -359.67)"/><path class="cls-5" d="M875.29,386.86a2,2,0,1,0-.23-2.8A2,2,0,0,0,875.29,386.86Z" transform="translate(-828.32 -359.67)"/><path class="cls-5" d="M867.11,396.51a2,2,0,1,0-.23-2.81A2,2,0,0,0,867.11,396.51Z" transform="translate(-828.32 -359.67)"/><path class="cls-5" d="M858.93,406.16a2,2,0,1,0-.23-2.81A2,2,0,0,0,858.93,406.16Z" transform="translate(-828.32 -359.67)"/><path class="cls-5" d="M850.75,415.8a2,2,0,1,0-.23-2.8A2,2,0,0,0,850.75,415.8Z" transform="translate(-828.32 -359.67)"/><path class="cls-4" d="M1029.6,501.19a2,2,0,1,0-.23-2.81A2,2,0,0,0,1029.6,501.19Z" transform="translate(-828.32 -359.67)"/><path class="cls-4" d="M1021.43,510.84a2,2,0,1,0-.23-2.81A2,2,0,0,0,1021.43,510.84Z" transform="translate(-828.32 -359.67)"/><path class="cls-4" d="M1013.25,520.48a2,2,0,1,0-.23-2.8A2,2,0,0,0,1013.25,520.48Z" transform="translate(-828.32 -359.67)"/><path class="cls-4" d="M1005.07,530.13a2,2,0,1,0-.23-2.81A2,2,0,0,0,1005.07,530.13Z" transform="translate(-828.32 -359.67)"/><path class="cls-4" d="M996.89,539.78a2,2,0,1,0,2.57-3,2,2,0,0,0-2.57,3Z" transform="translate(-828.32 -359.67)"/><path class="cls-7" d="M831.67,360.67c26.48,1.89,72.32,17.93,120.58,55.78,35.66,27.95,61.67,76.88,73.8,103l14.59-17.21s-19.94-53.48-67.35-89.4c-23.67-17.92-51.45-31.33-76.31-40.21C866.23,361.6,840,357.61,831.67,360.67Z" transform="translate(-828.32 -359.67)"/><polygon class="cls-1" points="191.16 195.03 222.26 158.35 210.16 145.13 176.14 185.26 191.16 195.03"/><polygon class="cls-2" points="176.14 185.26 183.46 190.01 214.79 150.19 210.16 145.14 176.14 185.26"/><polygon class="cls-8" points="23.18 72.09 37.39 71.14 44.07 84.68 43.46 69.6 56.39 63.63 42.03 63.76 35.5 51.04 35.85 65.34 23.18 72.09"/><polygon class="cls-8" points="26.67 19.6 34.62 19.07 38.35 26.64 38.01 18.21 45.23 14.87 37.21 14.95 33.56 7.84 33.76 15.83 26.67 19.6"/><polygon class="cls-8" points="90.93 180.96 98.88 180.43 102.61 187.99 102.27 179.56 109.5 176.22 101.47 176.3 97.82 169.19 98.02 177.18 90.93 180.96"/><polygon class="cls-8" points="232.3 110.76 240.25 110.23 243.98 117.79 243.64 109.36 250.87 106.03 242.84 106.1 239.19 98.99 239.39 106.98 232.3 110.76"/><path class="cls-9" d="M1026.32,546.51c14.41,9.72,27.14,22.13,36.43,36.94a99.4,99.4,0,0,1,15.6,49.73,90.68,90.68,0,0,1-3.25,26.54,94.26,94.26,0,0,1-11,24.94,108.76,108.76,0,0,1-17.71,21.46,137.86,137.86,0,0,1-22.57,17.11,139,139,0,0,0,24.7-14.57,114,114,0,0,0,21-20.16,102.18,102.18,0,0,0,22.1-54.87c1.79-20.28-2.5-41.1-11.37-59.67s-22.13-35.06-37.79-48.51Z" transform="translate(-828.32 -359.67)"/><polygon class="cls-5" points="222.65 208.95 228.33 210 229.59 215.98 230.86 210 236.53 208.95 230.89 207.57 229.59 201.92 228.3 207.57 222.65 208.95"/><polygon class="cls-5" points="243.53 320.92 246.7 321.51 247.41 324.85 248.12 321.51 251.29 320.92 248.13 320.15 247.41 316.99 246.69 320.15 243.53 320.92"/><polygon class="cls-5" points="245.23 291.92 248.4 292.5 249.11 295.84 249.82 292.5 252.99 291.91 249.83 291.14 249.11 287.99 248.39 291.14 245.23 291.92"/><polygon class="cls-5" points="226.85 190.31 230.02 190.9 230.73 194.24 231.44 190.9 234.6 190.31 231.45 189.54 230.73 186.38 230 189.54 226.85 190.31"/><path class="cls-5" d="M1064.35,687.82a.92.92,0,0,1,0,1.84A.92.92,0,0,1,1064.35,687.82Z" transform="translate(-828.32 -359.67)"/><path class="cls-5" d="M1038.12,545.5a.92.92,0,0,1,0,1.84A.92.92,0,0,1,1038.12,545.5Z" transform="translate(-828.32 -359.67)"/><path class="cls-5" d="M1087.6,627.46a.92.92,0,0,1,0,1.84A.92.92,0,0,1,1087.6,627.46Z" transform="translate(-828.32 -359.67)"/><path class="cls-5" d="M1066,683a.65.65,0,0,1,0,1.3A.65.65,0,0,1,1066,683Z" transform="translate(-828.32 -359.67)"/><path class="cls-5" d="M1087.93,595.35a.65.65,0,0,1,0,1.3A.65.65,0,0,1,1087.93,595.35Z" transform="translate(-828.32 -359.67)"/><path class="cls-5" d="M1081.31,661.85a1.76,1.76,0,0,1,0,3.52A1.76,1.76,0,0,1,1081.31,661.85Z" transform="translate(-828.32 -359.67)"/><path class="cls-5" d="M1079.61,589.37a1.77,1.77,0,0,1,0,3.53A1.77,1.77,0,0,1,1079.61,589.37Z" transform="translate(-828.32 -359.67)"/></svg>