<svg id="Layer_1" data-name="Layer 1" xmlns="http://www.w3.org/2000/svg" viewBox="0 0 28.47 39.39"><defs><style>.cls-1{fill:#f78110;}</style></defs><title>rocket-twosvg</title><path class="cls-1" d="M49.79,30.79V30.7l.07.05.07-.05v.09l.85.55a29.88,29.88,0,0,1,6.38,7.76c4.16,6.76,2.92,17,2.92,17a28.1,28.1,0,0,1,3.47,9.36c.15.79.28,1.62.37,2.49H62l-6.25,0-1.25,2-4.86,0L44.81,70l-1.23-2-6.25-.11-1.88,0c.1-.87.24-1.7.39-2.49a28.27,28.27,0,0,1,3.56-9.32s-1.14-10.3,3.08-17a29.68,29.68,0,0,1,6.45-7.69ZM49.73,49.7h.14a2.94,2.94,0,0,0,1.58-.45,3.09,3.09,0,0,0,1.49-2.53.71.71,0,0,0,0-.15,3.11,3.11,0,0,0-3.1-3.07h-.1a3.1,3.1,0,0,0-3.13,3,.86.86,0,0,0,0,.16,3.12,3.12,0,0,0,1.46,2.54,3,3,0,0,0,1.58.46Z" transform="translate(-35.45 -30.7)"/></svg>