<svg xmlns="http://www.w3.org/2000/svg" xmlns:xlink="http://www.w3.org/1999/xlink" viewBox="0 0 928.11 850.08"><defs><style>.cls-1{isolation:isolate;}.cls-2{fill:#d95f5f;}.cls-3{fill:url(#Áåçûìÿííûé_ãðàäèåíò_8);}.cls-4{fill:url(#Áåçûìÿííûé_ãðàäèåíò_45);}.cls-5{fill:url(#Áåçûìÿííûé_ãðàäèåíò_45-2);}.cls-6{fill:url(#Áåçûìÿííûé_ãðàäèåíò_45-3);}.cls-7{fill:url(#Áåçûìÿííûé_ãðàäèåíò_307);}.cls-8{fill:#f2c6d5;mix-blend-mode:multiply;}.cls-9{fill:url(#Áåçûìÿííûé_ãðàäèåíò_8-2);}.cls-10{fill:url(#Áåçûìÿííûé_ãðàäèåíò_45-4);}.cls-11{fill:url(#Áåçûìÿííûé_ãðàäèåíò_8-3);}.cls-12{fill:url(#Áåçûìÿííûé_ãðàäèåíò_20);}.cls-13{fill:url(#Áåçûìÿííûé_ãðàäèåíò_45-5);}.cls-14{fill:url(#Áåçûìÿííûé_ãðàäèåíò_52);}.cls-15{fill:url(#Áåçûìÿííûé_ãðàäèåíò_41);}.cls-16{fill:url(#Áåçûìÿííûé_ãðàäèåíò_52-2);}.cls-17{fill:url(#Áåçûìÿííûé_ãðàäèåíò_41-2);}.cls-18{fill:url(#Áåçûìÿííûé_ãðàäèåíò_14);}.cls-19{fill:url(#Áåçûìÿííûé_ãðàäèåíò_8-4);}.cls-20{fill:#d13b2d;}.cls-21,.cls-22,.cls-23{mix-blend-mode:screen;}.cls-21{fill:url(#Áåçûìÿííûé_ãðàäèåíò_395);}.cls-22{fill:url(#Áåçûìÿííûé_ãðàäèåíò_395-2);}.cls-23{fill:url(#Áåçûìÿííûé_ãðàäèåíò_395-3);}.cls-24{fill:url(#Áåçûìÿííûé_ãðàäèåíò_45-6);}.cls-25{fill:url(#Áåçûìÿííûé_ãðàäèåíò_45-7);}.cls-26{fill:#4f92a8;}.cls-27{fill:url(#Áåçûìÿííûé_ãðàäèåíò_411);}.cls-28{fill:url(#Áåçûìÿííûé_ãðàäèåíò_307-2);}.cls-29{fill:url(#Áåçûìÿííûé_ãðàäèåíò_45-8);}.cls-30{fill:url(#Áåçûìÿííûé_ãðàäèåíò_45-9);}.cls-31{fill:url(#Áåçûìÿííûé_ãðàäèåíò_307-3);}.cls-32{fill:url(#Áåçûìÿííûé_ãðàäèåíò_45-10);}.cls-33{fill:url(#Áåçûìÿííûé_ãðàäèåíò_45-11);}.cls-34{fill:url(#Áåçûìÿííûé_ãðàäèåíò_45-12);}</style><linearGradient id="Áåçûìÿííûé_ãðàäèåíò_8" x1="1139.3" y1="855.32" x2="1355.9" y2="782.18" gradientTransform="matrix(1, -0.05, 0.05, 1, -25.55, 43.05)" gradientUnits="userSpaceOnUse"><stop offset="0" stop-color="#f37777"/><stop offset="0.06" stop-color="#f5857e"/><stop offset="0.23" stop-color="#f8a68e"/><stop offset="0.41" stop-color="#fbbf9a"/><stop offset="0.59" stop-color="#fdd2a3"/><stop offset="0.79" stop-color="#ffdca8"/><stop offset="1" stop-color="#ffe0aa"/></linearGradient><linearGradient id="Áåçûìÿííûé_ãðàäèåíò_45" x1="1304.51" y1="655.29" x2="1204.65" y2="748.82" gradientTransform="matrix(1, -0.05, 0.05, 1, -25.55, 43.05)" gradientUnits="userSpaceOnUse"><stop offset="0" stop-color="#3c7f91"/><stop offset="1" stop-color="#133a7d"/></linearGradient><linearGradient id="Áåçûìÿííûé_ãðàäèåíò_45-2" x1="1346.23" y1="849.05" x2="1275.2" y2="943.99" xlink:href="#Áåçûìÿííûé_ãðàäèåíò_45"/><linearGradient id="Áåçûìÿííûé_ãðàäèåíò_45-3" x1="1391.56" y1="882.96" x2="1320.53" y2="977.9" xlink:href="#Áåçûìÿííûé_ãðàäèåíò_45"/><linearGradient id="Áåçûìÿííûé_ãðàäèåíò_307" x1="1483.09" y1="911.91" x2="1188.43" y2="1015.28" gradientTransform="matrix(1, -0.05, 0.05, 1, -25.55, 43.05)" gradientUnits="userSpaceOnUse"><stop offset="0" stop-color="#fa492c"/><stop offset="1" stop-color="#b1161a"/></linearGradient><linearGradient id="Áåçûìÿííûé_ãðàäèåíò_8-2" x1="923.84" y1="528.75" x2="1217.1" y2="418.34" xlink:href="#Áåçûìÿííûé_ãðàäèåíò_8"/><linearGradient id="Áåçûìÿííûé_ãðàäèåíò_45-4" x1="1174.15" y1="458.05" x2="1091.87" y2="549.83" xlink:href="#Áåçûìÿííûé_ãðàäèåíò_45"/><linearGradient id="Áåçûìÿííûé_ãðàäèåíò_8-3" x1="621.01" y1="510.08" x2="918.48" y2="377.17" xlink:href="#Áåçûìÿííûé_ãðàäèåíò_8"/><linearGradient id="Áåçûìÿííûé_ãðàäèåíò_20" x1="784.4" y1="294.55" x2="970.06" y2="256.05" gradientTransform="matrix(1, -0.05, 0.05, 1, -25.55, 43.05)" gradientUnits="userSpaceOnUse"><stop offset="0" stop-color="#f97762"/><stop offset="0.06" stop-color="#fa856a"/><stop offset="0.23" stop-color="#fca67b"/><stop offset="0.41" stop-color="#fdbf89"/><stop offset="0.59" stop-color="#fed293"/><stop offset="0.79" stop-color="#ffdc99"/><stop offset="1" stop-color="#ffe09b"/></linearGradient><linearGradient id="Áåçûìÿííûé_ãðàäèåíò_45-5" x1="1107.86" y1="160.7" x2="799.83" y2="391.37" xlink:href="#Áåçûìÿííûé_ãðàäèåíò_45"/><linearGradient id="Áåçûìÿííûé_ãðàäèåíò_52" x1="1071.91" y1="216.56" x2="814" y2="210.23" gradientTransform="matrix(1, -0.05, 0.05, 1, -25.55, 43.05)" gradientUnits="userSpaceOnUse"><stop offset="0" stop-color="#d2f7d6"/><stop offset="0.13" stop-color="#ccf3d4"/><stop offset="0.31" stop-color="#bbe8cd"/><stop offset="0.52" stop-color="#a0d5c2"/><stop offset="0.74" stop-color="#79bbb2"/><stop offset="0.98" stop-color="#489a9e"/><stop offset="1" stop-color="#43979c"/></linearGradient><linearGradient id="Áåçûìÿííûé_ãðàäèåíò_41" x1="1079.36" y1="217.71" x2="807.2" y2="193.45" gradientTransform="matrix(1, -0.05, 0.05, 1, -25.55, 43.05)" gradientUnits="userSpaceOnUse"><stop offset="0" stop-color="#bde8bf"/><stop offset="0.27" stop-color="#95d0b2"/><stop offset="0.54" stop-color="#74bda7"/><stop offset="0.69" stop-color="#67b5a3"/><stop offset="0.75" stop-color="#70baa6"/><stop offset="0.84" stop-color="#87c8ad"/><stop offset="0.96" stop-color="#addeba"/><stop offset="1" stop-color="#bde8bf"/></linearGradient><linearGradient id="Áåçûìÿííûé_ãðàäèåíò_52-2" x1="1068.41" y1="359.43" x2="810.49" y2="353.1" xlink:href="#Áåçûìÿííûé_ãðàäèåíò_52"/><linearGradient id="Áåçûìÿííûé_ãðàäèåíò_41-2" x1="969.69" y1="439.26" x2="764.52" y2="314.25" xlink:href="#Áåçûìÿííûé_ãðàäèåíò_41"/><linearGradient id="Áåçûìÿííûé_ãðàäèåíò_14" x1="746.2" y1="251.57" x2="836.92" y2="251.04" gradientTransform="matrix(1, -0.05, 0.05, 1, -25.55, 43.05)" gradientUnits="userSpaceOnUse"><stop offset="0" stop-color="#ee5656"/><stop offset="0.08" stop-color="#f1695e"/><stop offset="0.27" stop-color="#f68f6f"/><stop offset="0.46" stop-color="#faad7c"/><stop offset="0.65" stop-color="#fdc385"/><stop offset="0.83" stop-color="#fed08b"/><stop offset="1" stop-color="#ffd48d"/></linearGradient><linearGradient id="Áåçûìÿííûé_ãðàäèåíò_8-4" x1="765.01" y1="251.48" x2="815.3" y2="251.48" xlink:href="#Áåçûìÿííûé_ãðàäèåíò_8"/><linearGradient id="Áåçûìÿííûé_ãðàäèåíò_395" x1="1054.55" y1="150.35" x2="897.1" y2="390.41" gradientTransform="matrix(1, -0.05, 0.05, 1, -25.55, 43.05)" gradientUnits="userSpaceOnUse"><stop offset="0" stop-color="#3d4a4a"/><stop offset="0.51" stop-color="#1c2222"/><stop offset="1"/></linearGradient><linearGradient id="Áåçûìÿííûé_ãðàäèåíò_395-2" x1="1013.71" y1="227.24" x2="1013" y2="449.47" xlink:href="#Áåçûìÿííûé_ãðàäèåíò_395"/><linearGradient id="Áåçûìÿííûé_ãðàäèåíò_395-3" x1="979" y1="227.13" x2="978.3" y2="449.36" xlink:href="#Áåçûìÿííûé_ãðàäèåíò_395"/><linearGradient id="Áåçûìÿííûé_ãðàäèåíò_45-6" x1="581.43" y1="204.64" x2="601.47" y2="415.62" xlink:href="#Áåçûìÿííûé_ãðàäèåíò_45"/><linearGradient id="Áåçûìÿííûé_ãðàäèåíò_45-7" x1="932.01" y1="434.4" x2="708.37" y2="460.42" xlink:href="#Áåçûìÿííûé_ãðàäèåíò_45"/><linearGradient id="Áåçûìÿííûé_ãðàäèåíò_411" x1="934.19" y1="890.96" x2="1200.02" y2="454.24" gradientTransform="matrix(1, -0.05, 0.05, 1, -25.55, 43.05)" gradientUnits="userSpaceOnUse"><stop offset="0" stop-color="#f37777"/><stop offset="0.17" stop-color="#f69385"/><stop offset="0.4" stop-color="#fab495"/><stop offset="0.62" stop-color="#fdcca1"/><stop offset="0.83" stop-color="#fedba8"/><stop offset="1" stop-color="#ffe0aa"/></linearGradient><linearGradient id="Áåçûìÿííûé_ãðàäèåíò_307-2" x1="1030.36" y1="576.98" x2="758.2" y2="725.36" xlink:href="#Áåçûìÿííûé_ãðàäèåíò_307"/><linearGradient id="Áåçûìÿííûé_ãðàäèåíò_45-8" x1="1200.76" y1="552.13" x2="1307.31" y2="649.18" xlink:href="#Áåçûìÿííûé_ãðàäèåíò_45"/><linearGradient id="Áåçûìÿííûé_ãðàäèåíò_45-9" x1="1232.83" y1="516.93" x2="1339.37" y2="613.98" xlink:href="#Áåçûìÿííûé_ãðàäèåíò_45"/><linearGradient id="Áåçûìÿííûé_ãðàäèåíò_307-3" x1="1392.28" y1="540.13" x2="1266.75" y2="736.34" xlink:href="#Áåçûìÿííûé_ãðàäèåíò_307"/><linearGradient id="Áåçûìÿííûé_ãðàäèåíò_45-10" x1="1106.98" y1="502.7" x2="1037.36" y2="646.69" xlink:href="#Áåçûìÿííûé_ãðàäèåíò_45"/><linearGradient id="Áåçûìÿííûé_ãðàäèåíò_45-11" x1="1191.5" y1="324.97" x2="1292.4" y2="324.97" xlink:href="#Áåçûìÿííûé_ãðàäèåíò_45"/><linearGradient id="Áåçûìÿííûé_ãðàäèåíò_45-12" x1="1222.75" y1="337.54" x2="1328.61" y2="337.54" xlink:href="#Áåçûìÿííûé_ãðàäèåíò_45"/></defs><title>spaceman</title><g class="cls-1"><g id="Layer_1" data-name="Layer 1"><path class="cls-2" d="M841.78,709.74c-28.76,9-70.72,32.16-100.81,30.72C674.08,656,627.88,534,605.27,428.65c25.76-16.57,66.65-30,96.24-37.88C740.16,498.79,786.67,609.12,841.78,709.74Z" transform="translate(-551.02 -114.92)"/><path class="cls-3" d="M1479.13,910.51c-18.51,16.2-41.05,26.68-64.81,33.6a301,301,0,0,1-38,8.23c-37.06,5.75-71.34,6-108.23,12.66l-7.84-21.85c-20.79-57.33-42.39-115-65.93-171-4.88.71-7.95,1.33-12.84,2-1.71-5-.92-10.55-2.6-15.63q-73.77,12-148.44,17.33c23.27-47.84,60.34-95.25,99.38-132.67,2.87-2.76,5.79-5.47,8.67-8.11a577,577,0,0,1,73.62-16.22c17.4-2.77,34.67-4.75,50.79-5.89,23.91,15.79,50,42.36,54.44,57.6,2.11,19.83,4.34,39.53,6.57,59.18,3.91,34.35,7.94,68.56,11.65,103.11a50.64,50.64,0,0,1,5.81,2.72,96.58,96.58,0,0,1,22.69,16.19c.78.66,1.48,1.33,2.13,2,4.69,1,9.45,1.86,14.25,2.6a210.44,210.44,0,0,0,28.17,2.37,178.61,178.61,0,0,0,36.34-2.81c12.28,6,22.37,17,28.29,29.8A58.84,58.84,0,0,1,1479.13,910.51Z" transform="translate(-551.02 -114.92)"/><path class="cls-4" d="M1324,729.73c-14.07.74-27.61,1.2-42.12,2.17-7.87-17.5-17.81-35.1-27.73-51.55-14.28-5.54-27.09-12.44-41.36-17.94a5.68,5.68,0,0,0-.26.6,103.45,103.45,0,0,1-.33-44.17c17.4-2.77,34.67-4.75,50.79-5.89,23.91,15.79,50,42.36,54.44,57.6C1319.49,690.38,1321.72,710.08,1324,729.73Z" transform="translate(-551.02 -114.92)"/><path class="cls-5" d="M1364.1,851.75c-7.44,15.11-17.08,27-31.21,36.71-8.45-7.17-15.05-14.76-23.49-21.93a342.94,342.94,0,0,0,32-31A96.58,96.58,0,0,1,1364.1,851.75Z" transform="translate(-551.02 -114.92)"/><path class="cls-6" d="M1408.65,858.72a386.62,386.62,0,0,0-4.86,43,218.15,218.15,0,0,1-29.48.42,110,110,0,0,1,6.17-45.83A210.44,210.44,0,0,0,1408.65,858.72Z" transform="translate(-551.02 -114.92)"/><path class="cls-7" d="M1479.13,910.51c-18.51,16.2-41.05,26.68-64.81,33.6a301,301,0,0,1-38,8.23c-37.06,5.75-71.34,6-108.23,12.66l-7.84-21.85c22.58-10.36,45.73-14.76,70.48-16.93,14.16-1.23,28.4-2,42.62-2.19,7.28-.09,14.52,0,21.77.1,2.07.06,3.94.21,5.72.28a27.07,27.07,0,0,0,10.65-1.22,164.5,164.5,0,0,0,61.75-37.48A58.84,58.84,0,0,1,1479.13,910.51Z" transform="translate(-551.02 -114.92)"/><path class="cls-8" d="M1414.32,944.11a301,301,0,0,1-38,8.23c-37.06,5.75-71.34,6-108.23,12.66l-7.84-21.85c-20.79-57.33-42.39-115-65.93-171-4.88.71-7.95,1.33-12.84,2-1.71-5-.92-10.55-2.6-15.63q-73.77,12-148.44,17.33c23.27-47.84,60.34-95.25,99.38-132.67a341.41,341.41,0,0,1,85.78,3.58,953.88,953.88,0,0,1,84.66,209.7c2.62,9.63,9.92,17,19,21.27s18.87,6.37,28.31,9.65a122.65,122.65,0,0,1,53.32,37A119.38,119.38,0,0,1,1414.32,944.11Z" transform="translate(-551.02 -114.92)"/><path class="cls-9" d="M1236.82,407.3a510.2,510.2,0,0,1-57.33,81.56,432,432,0,0,1-45.6,45.75c-2.53,2.2-16.94-1.27-20.39-1.62-17.27-1.79-34.45-4.41-51.57-7.48-6.14-1.13-12.29-2.29-18.39-3.55-21.33-4.3-43.8-7.55-63.12-18.7-19-11-35.2-29.93-38.34-52.65a53,53,0,0,1,10.8-39.49c3.81-4.71,7.31-7.46,10.87-9,6.64-2.83,13.54-1.37,23.12,0a337.17,337.17,0,0,1,50.46,10.84c4.92,1.48,45.5,19.46,47,18,32.34-31.89,66-59,102.12-85.86C1208.09,360.27,1226.52,382.06,1236.82,407.3Z" transform="translate(-551.02 -114.92)"/><path class="cls-10" d="M1179.49,488.86a432,432,0,0,1-45.6,45.75c-2.53,2.2-16.94-1.27-20.39-1.62-17.27-1.79-34.45-4.41-51.57-7.48a166.81,166.81,0,0,1,13.6-28.6,216.85,216.85,0,0,0,39.8.07c17-1.55,30.75-11.66,43-23.6A135.07,135.07,0,0,1,1179.49,488.86Z" transform="translate(-551.02 -114.92)"/><path class="cls-8" d="M978.5,435.26a388.7,388.7,0,0,1,103.24,17.24c2.83,7.59,8.44,14.58,14.68,19.75,2.52-5.46,2.6-10.76,1.37-16.65l13.23,8.19a47.85,47.85,0,0,0-2.73-20.36,432.33,432.33,0,0,1,75.19-62c7.6,13,18.11,25.9,31.71,32.29-18.7,36.66-45.32,71.58-75.13,99.94-47,5.49-94.13.58-139.54-12.72-10.44-3.06-21.45-7.12-27.67-16-5.19-7.44-6.11-17.22-4.39-26.13S974.25,443.27,978.5,435.26Z" transform="translate(-551.02 -114.92)"/><path class="cls-11" d="M1049.19,560.31c-.93-1.19-29.41,10.47-31.88,11.39-12.9,5-25.89,9.63-38.37,15.54A598.73,598.73,0,0,0,918.81,620a567.13,567.13,0,0,0-78.19,58.54q-15.12,13.51-29.14,28.17a34.59,34.59,0,0,1-27.28-19.34c-3.59-7.68-5-16.21-8.78-23.79-3.56-7.09-8.76-13.32-13.25-19.91a471.84,471.84,0,0,1-27.06-45.17,478.25,478.25,0,0,1-22-47.83c-3.28-8.18-6.28-16.47-9.12-24.8-1.32-3.86-4.34-22.07-7.45-23.85-37.23-21.18-72.69-45.84-106.48-72.45q-17.54-13.8-34.5-28.28c-5.32-25-7.34-51.08,1.3-73.95a398.85,398.85,0,0,1,31.84-41.47c50.75-57.89,118-101.41,191.52-124.54,1.72,32.8-1.68,76.83-20.66,104.63a234.58,234.58,0,0,1-32.85,38,216,216,0,0,1-18.58,15.66c-.48.36-1.27,1-2.35,1.86-4.8,3.94-14.52,11.85-17,11q15.61,5.56,30.87,12l.51.22c10.78,4.49,21.41,9.22,31.94,14.3q18.39,8.83,36.28,18.83c34.14-3.69,68.18-10.19,102.63-9.56,1.29,0,2.53.08,3.86.09,21.71.73,45.5,3.78,62.75,16.41a55.41,55.41,0,0,1,15.73,17.59c5.56,9.84,9.07,20.7,12.85,31.34C1001.58,476.71,1020.78,524.27,1049.19,560.31Z" transform="translate(-551.02 -114.92)"/><path class="cls-8" d="M916.87,406.05c-4.48,14.76-27.07,19.46-40.26,20.36-32.9,2.26-69.34-9.49-98.77-23.25-10.14-4.73-21.9-10.48-32.17-17.85-13.16-9.4-23.88-21.46-26-37.49a12.46,12.46,0,0,1,0-3.35l.51.22c10.78,4.49,21.41,9.22,31.94,14.3q18.39,8.83,36.28,18.83c34.14-3.69,68.18-10.19,102.63-9.56,1.29,0,2.53.08,3.86.09a116.37,116.37,0,0,1,12.72,12.2C914,387.59,919.62,397,916.87,406.05Z" transform="translate(-551.02 -114.92)"/><path class="cls-8" d="M840.62,678.55q-15.12,13.51-29.14,28.17a34.59,34.59,0,0,1-27.28-19.34c-3.59-7.68-5-16.21-8.78-23.79-3.56-7.09-8.76-13.32-13.25-19.91a471.84,471.84,0,0,1-27.06-45.17,478.25,478.25,0,0,1-22-47.83c-3.28-8.18-6.28-16.47-9.12-24.8-1.32-3.86-4.34-22.07-7.45-23.85-37.23-21.18-72.69-45.84-106.48-72.45q-17.54-13.8-34.5-28.28c-5.32-25-7.34-51.08,1.3-73.95a398.85,398.85,0,0,1,31.84-41.47c50.75-57.89,118-101.41,191.52-124.54,1.72,32.8-1.68,76.83-20.66,104.63a234.58,234.58,0,0,1-32.85,38,216,216,0,0,1-18.58,15.66c-.48.36-1.27,1-2.35,1.86a92.38,92.38,0,0,0-68.18,18.05c9.11-.6,18,2.46,26.63,5.27-6.55,7.79-12.66,20.6-15.5,30.39,3.26-.91,6-.19,9.29-1.11q37.77,35,78.73,66.34c4.13-4.11,5.75-7.25,9.87-11.36,1.84,12.11,4.42,25.05,4.44,37.34,0,13.52-2.5,26.44-.38,40,3.55,22.9,15.94,44.59,27.08,64.57s25.62,38.17,33.49,59.6c4.05,11,6.37,22.84,12.91,32.51C828.47,669.42,834.28,674.33,840.62,678.55Z" transform="translate(-551.02 -114.92)"/><path class="cls-12" d="M1037.33,292a178.11,178.11,0,0,1-15.91,50.15c-15.06,30.78-39.12,55.54-72.68,65A145.29,145.29,0,0,1,924,411.72c-20.45,2.15-41.34.59-61.7-2-3.5-.4-7-.88-10.46-1.36a141.2,141.2,0,0,1-85.61-46.15c-36.65-41.69-43.54-101.32-23.7-151.59a152.63,152.63,0,0,1,15.46-29.4c1.5-2.23,3.08-4.38,4.71-6.49A144.3,144.3,0,0,1,779.5,156,151.14,151.14,0,0,1,826,126.55a161.67,161.67,0,0,1,102.7-6c3.07.83,6,1.71,9,2.71,31.92,10.66,64.79,31.61,81.17,61.7a1.57,1.57,0,0,0,.19.36c.83,1.61,1.66,3.22,2.44,4.84.46.84.88,1.69,1.29,2.54A170.63,170.63,0,0,1,1037.33,292Z" transform="translate(-551.02 -114.92)"/><path class="cls-8" d="M862.14,404.53c.09,1.69.14,3.43.11,5.17-3.5-.4-7-.88-10.46-1.36a141.2,141.2,0,0,1-85.61-46.15c-36.65-41.69-43.54-101.32-23.7-151.59a250,250,0,0,1,20.17-35.89c.42-.68.88-1.33,1.34-2,4.35-6.23,9.36-12.49,15.51-16.66a29.1,29.1,0,0,1,8.52-4c16.24-4.37,32.89,8.62,39.13,24.22s5,33,4.79,49.72a376.72,376.72,0,0,0,12.2,99.53C851,351.7,860.77,377.51,862.14,404.53Z" transform="translate(-551.02 -114.92)"/><path class="cls-13" d="M1037.33,292a178.11,178.11,0,0,1-15.91,50.15c-15.06,30.78-39.12,55.54-72.68,65A145.29,145.29,0,0,1,924,411.72a147.21,147.21,0,0,1-44.78-3.53c-33.77-8.08-64.45-29-83.46-58S769.79,284.22,778,250.53c51.27-52.83,125.59-78.65,198.68-70.1,15.9,1.85,31.77,5.36,46.15,12.31A170.63,170.63,0,0,1,1037.33,292Z" transform="translate(-551.02 -114.92)"/><path class="cls-14" d="M801,237.49c61.79-54.79,127-53.83,154.33-52.32,30.19,1.66,55.66,8.57,75.45,27.54l2.54,8.54,8-4.94s-44.89-57.93-162.76-28.7c-27.2,6.7-56.38,26-77.78,44.94Z" transform="translate(-551.02 -114.92)"/><path class="cls-15" d="M878.55,187.61c117.87-29.23,162.76,28.7,162.76,28.7l-14-31.66s-58.5-40.46-141.59-14.42c-51.27,16.06-88.26,50.63-88.26,50.63l3.29,11.69C822.17,213.61,851.35,194.31,878.55,187.61Z" transform="translate(-551.02 -114.92)"/><path class="cls-16" d="M782.16,291.48c7.09,41.85,33.59,77.51,70.7,98.12s83.56,21.68,122.83,5.56c1.09,1.38,1.44,3.47,2.53,4.85-25.31,7.48-53.21,14.89-79.43,11.82-28.54-3.34-55-18.28-75.15-38.79-41.24-37.9-44.82-78.72-44.82-78.72Z" transform="translate(-551.02 -114.92)"/><path class="cls-17" d="M898.79,411.83c-28.54-3.34-55-18.28-75.15-38.79-41.24-37.9-44.82-78.72-44.82-78.72l1.84-1.56L772.2,297c1,40.94,25.89,79.66,61,100.67s79.3,24.87,118.69,13.67c9-2.55,18-7.08,26.29-11.32C952.91,407.49,925,414.9,898.79,411.83Z" transform="translate(-551.02 -114.92)"/><path class="cls-18" d="M794.76,273.56c-.15.34-.26.64-.41.93-5.53,12.08-23.12,34.15-38.7,20.28a18.14,18.14,0,0,1-2.1-2.21c-3.62-4.36-5.4-10-6.47-15.43C744,260.92,745.78,243,753.44,228c4.73-9.26,14.32-22.88,26.94-21.18a16.48,16.48,0,0,1,3.48.85C807.8,216.16,802.06,256.67,794.76,273.56Z" transform="translate(-551.02 -114.92)"/><path class="cls-19" d="M794.76,273.56c-.15.34-.26.64-.41.93-5.53,12.08-23.12,34.15-38.7,20.28a18.14,18.14,0,0,1-2.1-2.21c7,3.19,15.64,1.54,22-2.85s10.79-11.16,13.81-18.31a69.53,69.53,0,0,0,.48-52.44c-2-4.82-4.9-9.84-9.45-12.12a16.48,16.48,0,0,1,3.48.85C807.8,216.16,802.06,256.67,794.76,273.56Z" transform="translate(-551.02 -114.92)"/><path class="cls-20" d="M774.49,260.16c-1.55,4.39-7.54,11-12.29,7s-4.33-13.29-3.61-18.62a25.38,25.38,0,0,1,6.75-14.06,6.29,6.29,0,0,1,4.71-2.07c5.08.3,7.18,9.28,6.54,13.2a16.92,16.92,0,0,0-1.71-6.41c-.94-2-3-3.68-5.16-3.52-2.67.2-4.45,2.81-5.55,5.25a37.7,37.7,0,0,0-3.24,16.52c.1,2.92.82,6.25,3.39,7.62a5.81,5.81,0,0,0,5.72-.43C771.73,263.6,773.71,262,774.49,260.16Z" transform="translate(-551.02 -114.92)"/><path class="cls-21" d="M1027.72,218.92c9.26,31.77,8.26,90.62-18.91,132.21-14.37,16.23-38.36,22.36-59.45,17.3s-39-20.26-49.68-39.11-14.63-41.05-13.75-62.71,6.36-42.91,13.5-63.38C942.59,190,991.86,192.23,1027.72,218.92Z" transform="translate(-551.02 -114.92)"/><path class="cls-22" d="M980.24,307.37c2,4.69,4.59,9.56,9.11,12s9.91,1.79,14.36-.43,8-5.9,11.11-9.79a82.86,82.86,0,0,0,17.11-39.77c1.63-11.58.71-23.73-4.23-34.33s-14.17-19.47-25.47-22.48C951,198.91,970.09,283.89,980.24,307.37Z" transform="translate(-551.02 -114.92)"/><path class="cls-23" d="M992.22,363.46c14.11-26.89-30.68-27.22-40.19-7.54-4.73,9.78-10.12,28.89,6.48,28C970.89,383.32,986.46,374.44,992.22,363.46Z" transform="translate(-551.02 -114.92)"/><path class="cls-24" d="M617.18,395c-5.46,13.56-15.3,25.5-27.07,34.6q-17.54-13.8-34.5-28.28c-5.32-25-7.34-51.08,1.3-73.95a398.85,398.85,0,0,1,31.84-41.47,59.12,59.12,0,0,1,27.62,17.79c2.2,2.53-6.31,21.76-7.9,24.7-3.8,7.11-6.35,12.17-6.9,20.63A64.16,64.16,0,0,0,617.18,395Z" transform="translate(-551.02 -114.92)"/><path class="cls-25" d="M866,465.2c-13.24-14.62-42.79-20.47-45.41,5.72a82,82,0,0,0,.63,19.43l-25-4.46c-1.29-.26-2.72-.56-3.43-1.64a4.89,4.89,0,0,1-.38-3.17c1.88-19.54,3.07-37.85,5-57.35C781.6,403.08,768.92,379,752.19,359c-10.53-5.08-21.16-9.81-31.94-14.3a459.68,459.68,0,0,1,64.83,80.59,459.94,459.94,0,0,1-4.22,64.85c14.06,4.89,27.77,9.32,42.5,11.06,4,15.89,11.63,31.86,22.23,42.9a52.07,52.07,0,0,0,11.84,9.38c13.3,7.54,25.29.84,29.38-12.81C894.64,514.53,884.31,485.43,866,465.2Z" transform="translate(-551.02 -114.92)"/><path class="cls-26" d="M860.17,513.93l.7.62a6.4,6.4,0,0,0,4.74,1.78,5.55,5.55,0,0,0,3.92-2.65c7.92-12.49,1.46-31.83-8.89-41.15-4.29-3.87-11.69-6.8-14.93-.34-2.77,5.51-.8,14.09.78,19.58A47.9,47.9,0,0,0,860.17,513.93Z" transform="translate(-551.02 -114.92)"/><path class="cls-27" d="M1338.29,628.2a202,202,0,0,1-28.94,27.29c-3-3.27-6-6.38-9-9.37A426.91,426.91,0,0,0,1262.94,613q-15,.6-29.67,2.18a507.68,507.68,0,0,0-86.56,17.19c-17.93,38.42-40.71,72.79-64.1,108-23.89,36-52.26,54.49-94.3,63.85-39.17,8.76-83,6.83-115-20.08a245.79,245.79,0,0,1-51.62-60.47c-3.76-6.26-7.28-12.74-10.44-19.31q-3.06-6.18-5.7-12.49A484.49,484.49,0,0,1,983.41,581c3.66-1.26,7.32-2.53,11-3.71,10.75-14.34,22-27.06,35.67-38.65,10.85-9.22,22.41-12.8,35.86-17.39a296.37,296.37,0,0,1,37.26,3.59c37.55,6,74.65,18.39,110.43,31.66.65-.12,1.3-.28,2-.39,10-2.06,18.86-4.88,28.8-7,1-.21,2.05-.39,3.11-.61,3.84-4.09,7.81-8.07,11.87-11.92q9.63-9.37,20-17.85a293.27,293.27,0,0,1,30.74-22.08c9.58-6,24.29-4.71,34.65-1.16,13.28,4.6,19.75,15.27,23.45,27.45a117.51,117.51,0,0,1,3,12.71C1377.64,571.49,1361.5,602.12,1338.29,628.2Z" transform="translate(-551.02 -114.92)"/><path class="cls-8" d="M1233.27,615.13a507.68,507.68,0,0,0-86.56,17.19c-17.93,38.42-40.71,72.79-64.1,108-23.89,36-52.26,54.49-94.3,63.85-39.17,8.76-83,6.83-115-20.08a245.79,245.79,0,0,1-51.62-60.47c-3.76-6.26-7.28-12.74-10.44-19.31,10.86-9.8,23.85-17.76,32.38-29.54,9.45,9.06,23.43,12.17,36.49,11.2s28.05-5.65,40.34-10.22c14.65-31.59,37.12-59.12,63.7-81.65,18.58,10.32,38.22,18.72,58.13,26.16C1100.84,590,1173.23,588.19,1233.27,615.13Z" transform="translate(-551.02 -114.92)"/><path class="cls-28" d="M994.39,577.29C987,590.46,985,592.05,978.1,605.9c-34.76,11-66.05,31.18-93.77,54.88-22.49,19.26-42.79,40.85-62.62,62.82a247.16,247.16,0,0,1-16.14-31.8A483.79,483.79,0,0,1,994.39,577.29Z" transform="translate(-551.02 -114.92)"/><path class="cls-29" d="M1285.57,593.27c-6.64,5.94-14.4,8.62-23.33,8.8-9.69-17.74-24.82-33.25-46.67-46,10-2.06,18.86-4.88,28.8-7C1266.35,558,1279.86,574.33,1285.57,593.27Z" transform="translate(-551.02 -114.92)"/><path class="cls-30" d="M1333.08,560.38c-6.18,8.43-13.2,14.13-22.33,19.2-15.1-16.66-30.89-33.87-51.4-43q9.63-9.37,20-17.85C1299.74,528,1319.43,543,1333.08,560.38Z" transform="translate(-551.02 -114.92)"/><path class="cls-31" d="M1338.29,628.2a202,202,0,0,1-28.94,27.29c-3-3.27-6-6.38-9-9.37a161.73,161.73,0,0,0,19.3-16.19,162.59,162.59,0,0,0,48.63-107,117.51,117.51,0,0,1,3,12.71C1377.64,571.49,1361.5,602.12,1338.29,628.2Z" transform="translate(-551.02 -114.92)"/><path class="cls-32" d="M1130.05,551.23c-6.69-10.73-16.2-19.46-26.87-26.39a296.37,296.37,0,0,0-37.26-3.59c-13.45,4.59-25,8.17-35.86,17.39-13.63,11.59-24.92,24.31-35.67,38.65-4.73,8.4-7.26,12.1-10.25,17.26,14.24,24.09,36.76,46.32,64.08,53.23a238.74,238.74,0,0,1,51.14-40.37c11.76-6.86,24.54-6.83,37.58-10.62C1142.37,581.16,1138.77,565.26,1130.05,551.23Z" transform="translate(-551.02 -114.92)"/><path class="cls-33" d="M1283.33,366.39c-5.93,21.74-44.13,50.75-66.4,35.62-8.88-6-14.07-16-19-25.57-6.13-12.05-12.36-24.38-14.55-37.76-4.53-27.93,10.33-56.22,6.75-84.29-3-3.73-4.85-8.15-7.9-11.83,1.67-2.2,4.58-5,6.24-7.24a128.82,128.82,0,0,0-6.48-26.55c.47-.52.94-1,1.41-1.52,4.17-4.23,9.6-7.21,15.4-6.19,8.32,8.71,13.89,18.8,19.34,29.56,4.38,8.63,0,20.94.07,30.61,1.41,0,2.78.15,4.15.24a255.84,255.84,0,0,1,46.64,6.58c11.23,2.64,9.84,19.55,11,31q2.28,22,4.13,44C1284.8,350.88,1285.42,358.87,1283.33,366.39Z" transform="translate(-551.02 -114.92)"/><path class="cls-34" d="M1315.62,310.58a33,33,0,0,1-6.11,18.52c-2.4.75-4.8,1.58-7.2,2.28a233.07,233.07,0,0,0-5.12,30.93c1,1.23,1.51,3.56,2.52,4.83-.1,4.35-.12,8-.26,12.34a46.24,46.24,0,0,1-8.86,5.43,30.3,30.3,0,0,1-12.63,2.94c-9.16,0-16.61-5.1-24.91-8-9.42-3.31-18.88-6.51-28.32-9.76-2-6-1.78-11.45-.2-17.45a17.42,17.42,0,0,1-9.78-6.53,119,119,0,0,1,.25-21.27,9.41,9.41,0,0,1,1.26-4.54c1.72-2.53,5-2.74,7.69-3.25-.17-3.22-1.56-6-2.06-9.16-.61-4.61,0-9.81.2-14.41a6.66,6.66,0,0,1,1.11-4.16,6.87,6.87,0,0,1,3.33-1.83c4.72-1.52,9.22-3.46,13.76-5.14a22.11,22.11,0,0,1-6.19-13.21c-.81-8.31.7-13.48,9.31-15.75,3.87-1,8.13-1.87,10.7-5,3.5-4.32,6.24-7.19,11-10,.75.17,1.5.34,2.26.55a69.89,69.89,0,0,1,49.6,44.23c1.93,5.24-1.38,10.79-3.88,15.93l-.45.89c-.94.25-3,1.23-3.93,1.53a4.66,4.66,0,0,0-.14,2.2,5.36,5.36,0,0,0,.79,2.36C1311,308.13,1313.43,309.08,1315.62,310.58Z" transform="translate(-551.02 -114.92)"/><path class="cls-26" d="M1313.12,299a2,2,0,0,1-.42.06,140.79,140.79,0,0,0-39.37-34.59,109,109,0,0,0-5.9-20c-.35-.85-.67-1.73-1-2.6a13.31,13.31,0,0,1,.94-3A69.89,69.89,0,0,1,1317,283.13C1318.94,288.36,1315.61,293.92,1313.12,299Zm-3.74,7a5.36,5.36,0,0,1-.79-2.36c-12.52-7.62-26-16.43-38.18-23.7a63.57,63.57,0,0,0-13.2,30.69,175.1,175.1,0,0,1,33.13,16.59c-11.53-2.91-23.49-5.51-34.63-9.68a92.53,92.53,0,0,0-2.49,28.46c10.69,4.2,20.29,12.18,27.3,21.25-7.74-4.89-17-8.26-25.76-10.86,1.12,5.61.18,12.15-.76,17.83,11.25,6.32,23.73,10.84,36.59,10.66a46.24,46.24,0,0,0,8.86-5.43c.14-4.35.16-8,.26-12.34-1-1.27-1.51-3.6-2.52-4.83a233.07,233.07,0,0,1,5.12-30.93c2.4-.7,4.8-1.53,7.2-2.28a33,33,0,0,0,6.11-18.52C1313.43,309.08,1311,308.13,1309.38,306Zm-91.13-44.8c-.09-9.67,4.31-22-.07-30.61-5.45-10.76-11-20.85-19.34-29.56-5.8-1-11.23,2-15.4,6.19,2.6,5.32,5.34,10.18,7,16.06,1.87,6.6,3.1,13.4,4.53,20.11,1.64,7.65,3.57,15.37,7,22.43a14.92,14.92,0,0,0,3.66,5.15c3.42,2.88,8.42,2.74,12.87,2.42,1.24-4,2.56-8,3.88-11.95C1221,261.38,1219.66,261.28,1218.25,261.23Z" transform="translate(-551.02 -114.92)"/></g></g></svg>