<svg id="Layer_1" data-name="Layer 1" xmlns="http://www.w3.org/2000/svg" viewBox="0 0 1599.2 370.33"><defs><style>.cls-1{fill:#c8c8c8;}.cls-2{fill:#5d626a;}</style></defs><title>stars</title><polygon class="cls-1" points="889.57 311.18 895.1 312.16 896.33 317.77 897.57 312.16 903.1 311.18 897.59 309.88 896.33 304.59 895.07 309.88 889.57 311.18"/><polygon class="cls-1" points="1580.93 317.57 1588.4 318.9 1590.07 326.48 1591.74 318.9 1599.2 317.57 1591.77 315.82 1590.07 308.67 1588.37 315.82 1580.93 317.57"/><polygon class="cls-1" points="0 295.2 5.35 296.16 6.55 301.58 7.74 296.16 13.1 295.2 7.77 293.95 6.55 288.82 5.33 293.95 0 295.2"/><polygon class="cls-2" points="241.44 9.69 246.1 6.44 251 9.57 247.87 4.67 251.13 0 246.26 3.02 241.56 0.12 244.45 4.82 241.44 9.69"/><polygon class="cls-1" points="855.58 53.29 859.93 54.06 860.9 58.48 861.87 54.06 866.22 53.29 861.89 52.27 860.9 48.1 859.91 52.27 855.58 53.29"/><polygon class="cls-2" points="379.11 370.33 384.57 366.52 390.3 370.19 386.64 364.45 390.44 358.99 384.75 362.52 379.25 359.14 382.64 364.63 379.11 370.33"/><path class="cls-2" d="M1561.76,258.6a2.64,2.64,0,1,1,0,5.28A2.64,2.64,0,1,1,1561.76,258.6Z" transform="translate(-96.9 -228.52)"/></svg>